<?xml version="1.0" encoding="utf-8"?>
<!-- Generator: Adobe Illustrator 22.1.0, SVG Export Plug-In . SVG Version: 6.00 Build 0)  -->
<svg version="1.1" id="Icon_Set" xmlns="http://www.w3.org/2000/svg" xmlns:xlink="http://www.w3.org/1999/xlink" x="0px" y="0px"
	 viewBox="0 0 512 512" style="enable-background:new 0 0 512 512;" xml:space="preserve">
<style type="text/css">
	.st0{fill:#F0C48A;}
	.st1{fill:#FD919E;}
	.st2{fill:#4C4372;}
	.st3{fill:#D3E6F8;}
	.st4{fill:#A4CFF2;}
	.st5{fill:#7BABF1;}
	.st6{fill:#FFFFFF;}
	.st7{fill:#E8677D;}
	.st8{fill:none;stroke:#4C4372;stroke-width:12;stroke-linecap:round;stroke-linejoin:round;stroke-miterlimit:10;}
</style>
<g id="Baby">
	<g>
		<g>
			<circle class="st0" cx="256" cy="256" r="207"/>
		</g>
	</g>
	<g>
		<g>
			<path class="st3" d="M378.262,310.784H133.738c-23.394,0-42.359-18.965-42.359-42.359v0c0-23.394,18.965-42.359,42.359-42.359
				h244.525c23.394,0,42.359,18.965,42.359,42.359v0C420.621,291.82,401.657,310.784,378.262,310.784z"/>
		</g>
		<g>
			<path class="st2" d="M378.262,316.784H133.738c-26.666,0-48.359-21.694-48.359-48.359s21.694-48.359,48.359-48.359h244.524
				c26.666,0,48.359,21.694,48.359,48.359S404.928,316.784,378.262,316.784z M133.738,232.066
				c-20.049,0-36.359,16.311-36.359,36.359s16.311,36.359,36.359,36.359h244.524c20.049,0,36.359-16.311,36.359-36.359
				s-16.311-36.359-36.359-36.359H133.738z"/>
		</g>
		<g>
			<path class="st6" d="M256,117.966L256,117.966c-65.216,0-118.574,53.358-118.574,118.574v38.92
				c0,65.216,53.358,118.574,118.574,118.574h0c65.216,0,118.574-53.358,118.574-118.574v-38.92
				C374.574,171.325,321.216,117.966,256,117.966z"/>
		</g>
		<g>
			<path class="st3" d="M256,117.966L256,117.966c-4.065,0-8.084,0.208-12.046,0.612c59.614,6.086,106.528,56.811,106.528,117.962
				v38.92c0,61.15-46.914,111.876-106.528,117.962c3.963,0.404,7.981,0.612,12.046,0.612h0c65.216,0,118.574-53.358,118.574-118.574
				v-38.92C374.574,171.325,321.216,117.966,256,117.966z"/>
		</g>
		<g>
			<path class="st2" d="M256,400.034c-68.69,0-124.574-55.884-124.574-124.574v-38.92c0-68.69,55.884-124.574,124.574-124.574
				S380.574,167.85,380.574,236.54v38.92C380.574,344.15,324.69,400.034,256,400.034z M256,123.966
				c-62.074,0-112.574,50.5-112.574,112.574v38.92c0,62.074,50.5,112.574,112.574,112.574s112.574-50.5,112.574-112.574v-38.92
				C368.574,174.467,318.074,123.966,256,123.966z"/>
		</g>
		<g>
			<circle class="st2" cx="202.772" cy="260.95" r="17.487"/>
		</g>
		<g>
			<circle class="st2" cx="309.228" cy="260.95" r="17.487"/>
		</g>
		<g>
			<path class="st2" d="M256,343.729c-10.16,0-20.316-1.63-29.986-4.891l-6.428-2.168c-3.14-1.059-4.827-4.463-3.768-7.603
				c1.059-3.14,4.463-4.828,7.603-3.768l6.428,2.168c16.863,5.688,35.438,5.688,52.301,0l6.429-2.168
				c3.142-1.06,6.544,0.629,7.603,3.768c1.059,3.14-0.628,6.544-3.768,7.603l-6.429,2.168
				C276.318,342.098,266.157,343.729,256,343.729z"/>
		</g>
		<g>
			<circle class="st1" cx="256" cy="330.984" r="27.617"/>
		</g>
		<g>
			<path class="st2" d="M256,364.601c-18.537,0-33.617-15.081-33.617-33.617s15.081-33.617,33.617-33.617
				s33.617,15.081,33.617,33.617S274.537,364.601,256,364.601z M256,309.367c-11.92,0-21.617,9.697-21.617,21.617
				s9.697,21.617,21.617,21.617s21.617-9.697,21.617-21.617S267.92,309.367,256,309.367z"/>
		</g>
		<g>
			<path class="st2" d="M248.55,196.597c-10.501,0-20.79-5.028-27.14-14.286c-3.409-4.972-4.621-11.199-3.323-17.086
				s5.014-11.028,10.197-14.106c9.992-5.932,22.884-3.017,29.352,6.637l3.349,4.999c1.844,2.753,1.107,6.48-1.646,8.324
				c-2.753,1.844-6.48,1.107-8.324-1.646l-3.349-4.999c-2.92-4.359-8.742-5.676-13.255-2.998c-2.375,1.41-4.011,3.673-4.605,6.37
				c-0.595,2.698-0.062,5.438,1.501,7.716c6.277,9.153,18.617,11.794,28.091,6.014c5.972-3.643,10.09-9.411,11.596-16.242
				c1.506-6.832,0.195-13.796-3.691-19.613L251.011,121.3c-1.841-2.755-1.1-6.481,1.655-8.322c2.754-1.841,6.48-1.1,8.322,1.655
				l16.292,24.383c5.719,8.56,7.648,18.81,5.432,28.863c-2.216,10.053-8.277,18.542-17.065,23.903
				C260.312,195.038,254.397,196.597,248.55,196.597z"/>
		</g>
	</g>
</g>
</svg>
