<?xml version="1.0" encoding="utf-8"?>
<!-- Generator: Adobe Illustrator 22.1.0, SVG Export Plug-In . SVG Version: 6.00 Build 0)  -->
<svg version="1.1" id="Icon_Set" xmlns="http://www.w3.org/2000/svg" xmlns:xlink="http://www.w3.org/1999/xlink" x="0px" y="0px"
	 viewBox="0 0 512 512" style="enable-background:new 0 0 512 512;" xml:space="preserve">
<style type="text/css">
	.st0{fill:#F0C48A;}
	.st1{fill:#FD919E;}
	.st2{fill:#4C4372;}
	.st3{fill:#D3E6F8;}
	.st4{fill:#A4CFF2;}
	.st5{fill:#7BABF1;}
	.st6{fill:#FFFFFF;}
	.st7{fill:#E8677D;}
	.st8{fill:none;stroke:#4C4372;stroke-width:12;stroke-linecap:round;stroke-linejoin:round;stroke-miterlimit:10;}
</style>
<g id="Dental">
	<g>
		<g>
			<circle class="st0" cx="256" cy="256" r="207"/>
		</g>
	</g>
	<g>
		<g>
			<g>
				<path class="st6" d="M361.43,142.934L361.43,142.934c-14.944-20.921-42.098-29.162-66.149-20.076l0,0
					c-25.315,9.563-53.248,9.563-78.563,0l0,0c-24.051-9.086-51.205-0.846-66.149,20.076l0,0
					c-11.833,16.567-13.872,38.208-5.34,56.693l16.617,36.003c7.056,15.288,8.918,32.525,4.949,48.889
					c-7.189,29.642-10.45,81.979,42.334,113.333c5.028,2.987,11.222-1.35,10.238-7.115c-9.355-54.822,3.789-101.941,36.633-101.941
					s45.987,47.119,36.633,101.941c-0.984,5.764,5.21,10.101,10.238,7.115c52.784-31.354,49.523-83.691,42.334-113.334
					c-3.969-16.364-2.107-33.601,4.949-48.889l16.617-36.003C375.302,181.142,373.264,159.502,361.43,142.934z"/>
			</g>
			<g>
				<g>
					<path class="st3" d="M361.43,142.934c-13.703-19.184-37.67-27.695-60.1-21.972c12.637,3.223,24.125,10.781,32.119,21.972
						c11.834,16.567,13.872,38.208,5.34,56.693l-16.617,36.003c-7.056,15.288-8.918,32.525-4.949,48.889
						c6.195,25.543,9.468,67.936-23.518,99.236c-0.318,2.312-0.673,4.64-1.073,6.983c-0.984,5.764,5.21,10.101,10.238,7.115
						c52.784-31.354,49.523-83.691,42.334-113.333c-3.969-16.364-2.107-33.601,4.949-48.889l16.617-36.003
						C375.302,181.142,373.264,159.502,361.43,142.934z"/>
				</g>
			</g>
			<g>
				<path class="st2" d="M299.393,404.829c-2.527,0-5.046-0.763-7.252-2.278c-4.201-2.886-6.279-7.799-5.422-12.821
					c6.321-37.046,2.032-69.797-11.195-85.472c-5.297-6.277-11.865-9.46-19.523-9.46s-14.226,3.183-19.523,9.46
					c-13.227,15.675-17.517,48.426-11.195,85.472c0.857,5.023-1.221,9.936-5.422,12.822c-4.168,2.862-9.454,3.039-13.795,0.461
					c-24.711-14.68-40.334-35.233-46.432-61.09c-5.27-22.345-2.185-44.318,1.332-58.816c3.595-14.824,1.974-30.791-4.566-44.961
					l-16.617-36.003c-9.413-20.394-7.149-44.417,5.906-62.695c16.506-23.107,46.586-32.238,73.152-22.201
					c23.963,9.053,50.358,9.053,74.322,0c26.562-10.037,56.646-0.907,73.151,22.201l0,0c13.055,18.278,15.318,42.301,5.906,62.695
					l-16.617,36.003c-6.54,14.17-8.161,30.137-4.566,44.96c3.516,14.498,6.602,36.471,1.332,58.816
					c-6.098,25.857-21.721,46.411-46.432,61.09C303.892,404.225,301.639,404.829,299.393,404.829z M256,282.796
					c11.197,0,21.12,4.745,28.694,13.722c15.679,18.581,20.857,54.18,13.853,95.229c-0.024,0.143-0.099,0.578,0.387,0.912
					c0.433,0.297,0.729,0.12,0.872,0.036c21.805-12.952,35.56-30.961,40.882-53.528c4.725-20.036,1.894-40.007-1.314-53.233
					c-4.23-17.443-2.337-36.2,5.333-52.817l16.617-36.003c7.61-16.489,5.781-35.913-4.775-50.692l0,0
					c-13.345-18.683-37.667-26.064-59.146-17.95c-26.698,10.086-56.105,10.086-82.803,0c-21.48-8.115-45.801-0.733-59.146,17.95
					c-10.556,14.779-12.385,34.203-4.775,50.692l16.617,36.003c7.669,16.617,9.563,35.375,5.333,52.817
					c-3.208,13.226-6.04,33.197-1.314,53.233c5.322,22.566,19.077,40.575,40.882,53.527c0.143,0.084,0.439,0.262,0.872-0.036
					c0.486-0.333,0.412-0.769,0.387-0.912c-7.004-41.048-1.826-76.648,13.853-95.229C234.88,287.542,244.803,282.796,256,282.796z"
					/>
			</g>
		</g>
		<g>
			<g>
				<polygon class="st1" points="122.335,145.499 140.013,113.176 157.69,145.499 190.013,163.176 157.69,180.854 140.013,213.176 
					122.335,180.854 90.013,163.176 				"/>
			</g>
			<g>
				<path class="st2" d="M140.013,219.176c-2.193,0-4.212-1.197-5.264-3.121l-16.834-30.78l-30.78-16.834
					c-1.924-1.052-3.121-3.071-3.121-5.264s1.197-4.212,3.121-5.264l30.78-16.834l16.834-30.78c1.052-1.924,3.071-3.121,5.264-3.121
					s4.212,1.197,5.264,3.121l16.834,30.78l30.78,16.834c1.924,1.052,3.121,3.071,3.121,5.264s-1.197,4.212-3.121,5.264
					l-30.78,16.834l-16.834,30.78C144.225,217.979,142.206,219.176,140.013,219.176z M102.517,163.176l22.697,12.414
					c1.007,0.551,1.834,1.378,2.385,2.385l12.414,22.697l12.414-22.697c0.551-1.007,1.378-1.834,2.385-2.385l22.697-12.414
					l-22.697-12.414c-1.007-0.551-1.834-1.378-2.385-2.385l-12.414-22.697l-12.414,22.697c-0.551,1.007-1.378,1.834-2.385,2.385
					L102.517,163.176z M122.335,145.499h0.01H122.335z"/>
			</g>
		</g>
	</g>
</g>
</svg>
