<?xml version="1.0" encoding="utf-8"?>
<!-- Generator: Adobe Illustrator 22.1.0, SVG Export Plug-In . SVG Version: 6.00 Build 0)  -->
<svg version="1.1" id="Icon_Set" xmlns="http://www.w3.org/2000/svg" xmlns:xlink="http://www.w3.org/1999/xlink" x="0px" y="0px"
	 viewBox="0 0 512 512" style="enable-background:new 0 0 512 512;" xml:space="preserve">
<style type="text/css">
	.st0{fill:#F0C48A;}
	.st1{fill:#FD919E;}
	.st2{fill:#4C4372;}
	.st3{fill:#D3E6F8;}
	.st4{fill:#A4CFF2;}
	.st5{fill:#7BABF1;}
	.st6{fill:#FFFFFF;}
	.st7{fill:#E8677D;}
	.st8{fill:none;stroke:#4C4372;stroke-width:12;stroke-linecap:round;stroke-linejoin:round;stroke-miterlimit:10;}
</style>
<g id="Ear">
	<g>
		<g>
			<circle class="st0" cx="256" cy="256" r="207"/>
		</g>
	</g>
	<g>
		<g>
			<path class="st3" d="M147.292,361.944c0,34.38,27.87,62.25,62.25,62.25s62.25-27.87,62.25-62.25c0,0,0.619-19.785,14.205-40.646
				c6.799-10.439,16.46-18.591,27.42-24.513c53.728-29.027,51.272-100.28,51.272-100.28c0-60.033-48.666-108.699-108.699-108.699
				s-108.699,48.666-108.699,108.699V361.944z"/>
		</g>
		<g>
			<path class="st4" d="M208.94,239.429c0,0,26.456-42.633,70.332-21.612c-19.952-34.335-68.05-29.817-90.037-3.268L208.94,239.429z
				"/>
		</g>
		<g>
			<path class="st4" d="M364.691,196.506c0-50.629-34.613-93.172-81.467-105.26c35.18,17.998,59.263,54.602,59.263,96.832
				c0,0,2.455,71.253-51.272,100.28c-10.96,5.922-20.622,14.074-27.421,24.513c-13.586,20.861-14.205,40.646-14.205,40.646
				c0,34.38-27.87,62.25-62.25,62.25c-3.612,0-7.147-0.325-10.59-0.915c9.524,5.917,20.757,9.342,32.795,9.342
				c34.38,0,62.25-27.87,62.25-62.25c0,0,0.619-19.785,14.205-40.646c6.799-10.439,16.46-18.591,27.42-24.513
				C367.146,267.758,364.691,196.506,364.691,196.506z"/>
		</g>
		<g>
			<path class="st2" d="M209.543,430.194c-37.634,0-68.251-30.617-68.251-68.251V196.505c0-63.245,51.454-114.699,114.699-114.699
				c63.215,0,114.649,51.403,114.699,114.605c0.049,1.734,0.385,19.549-5.717,40.991c-8.438,29.646-25.279,52.006-48.704,64.661
				c-10.836,5.854-19.33,13.428-25.244,22.509c-12.139,18.638-13.175,36.258-13.232,37.491
				C277.729,399.644,247.137,430.194,209.543,430.194z M255.991,93.806c-56.629,0-102.699,46.07-102.699,102.699v165.438
				c0,31.017,25.234,56.251,56.251,56.251s56.25-25.234,56.25-56.251c0-0.062,0.001-0.125,0.003-0.188
				c0.027-0.876,0.836-21.718,15.175-43.732c7.019-10.777,16.977-19.7,29.595-26.518c49.741-26.873,48.15-94.124,48.128-94.801
				c-0.002-0.064-0.003-0.136-0.003-0.2C358.69,139.876,312.62,93.806,255.991,93.806z"/>
		</g>
		<g>
			<path class="st4" d="M300.33,147.379c0,0-66.142-15.155-104.123,61.944C177.757,140.877,254.098,105.463,300.33,147.379z"/>
		</g>
		<g>
			<path class="st2" d="M201.826,367.149c-1.833,0.001-3.687-0.169-5.542-0.521c-8.106-1.537-15.062-6.184-19.587-13.084
				s-6.012-15.132-4.189-23.18l4.087-18.051c0.732-3.231,3.949-5.262,7.177-4.526c3.231,0.731,5.259,3.944,4.526,7.177
				l-4.087,18.051c-1.097,4.843-0.201,9.797,2.521,13.95c2.723,4.152,6.909,6.948,11.787,7.874
				c9.131,1.728,18.214-3.865,20.798-12.768l4.975-28.13c0.032-0.184,0.073-0.365,0.122-0.544
				c2.888-10.51,11.07-18.613,21.354-21.148c22.177-5.467,37.229-26.045,35.789-48.929c-1.473-23.417-20.222-42.351-43.612-44.042
				c-14.041-1.021-27.682,4.17-37.432,14.223c-2.308,2.378-6.104,2.437-8.484,0.129c-2.378-2.308-2.437-6.105-0.129-8.484
				c12.229-12.606,29.328-19.103,46.91-17.836c29.35,2.122,52.876,25.877,54.724,55.257c1.804,28.682-17.076,54.477-44.893,61.333
				c-5.989,1.477-10.79,6.226-12.585,12.426l-4.975,28.131c-0.032,0.184-0.073,0.365-0.122,0.544
				C227.331,358.211,215.126,367.149,201.826,367.149z"/>
		</g>
		<g>
			<path class="st2" d="M218.552,278.095h-9.402c-3.313,0-6-2.687-6-6s2.687-6,6-6h9.402c5.697,0,10.333-4.636,10.333-10.333
				s-4.636-10.333-10.333-10.333h-9.611c-1.56,0-3.059-0.607-4.178-1.693c-15.08-14.629-22.857-35.085-21.337-56.122
				c2.537-35.11,30.955-63.254,66.102-65.465c19.827-1.241,38.661,5.521,53.071,19.055c14.212,13.346,22.362,32.177,22.362,51.664
				c0,3.313-2.687,6-6,6s-6-2.687-6-6c0-16.426-6.598-31.667-18.576-42.917c-11.97-11.24-27.642-16.854-44.104-15.825
				c-29.184,1.835-52.78,25.202-54.887,54.354c-1.206,16.691,4.623,32.938,16.047,44.95h7.11c12.314,0,22.333,10.019,22.333,22.333
				S230.866,278.095,218.552,278.095z"/>
		</g>
	</g>
</g>
</svg>
