<?xml version="1.0" encoding="utf-8"?>
<!-- Generator: Adobe Illustrator 22.1.0, SVG Export Plug-In . SVG Version: 6.00 Build 0)  -->
<svg version="1.1" id="Icon_Set" xmlns="http://www.w3.org/2000/svg" xmlns:xlink="http://www.w3.org/1999/xlink" x="0px" y="0px"
	 viewBox="0 0 512 512" style="enable-background:new 0 0 512 512;" xml:space="preserve">
<style type="text/css">
	.st0{fill:#F0C48A;}
	.st1{fill:#FD919E;}
	.st2{fill:#4C4372;}
	.st3{fill:#D3E6F8;}
	.st4{fill:#A4CFF2;}
	.st5{fill:#7BABF1;}
	.st6{fill:#FFFFFF;}
	.st7{fill:#E8677D;}
	.st8{fill:none;stroke:#4C4372;stroke-width:12;stroke-linecap:round;stroke-linejoin:round;stroke-miterlimit:10;}
</style>
<g id="Endocrinology">
	<g>
		<g>
			<circle class="st0" cx="256" cy="256" r="207"/>
		</g>
	</g>
	<g>
		<g>
			<path class="st3" d="M319.736,236.858H192.264c-12.195,0-22.082-9.886-22.082-22.082v0c0-12.195,9.886-22.082,22.082-22.082
				h127.472c12.195,0,22.082,9.886,22.082,22.082v0C341.818,226.972,331.931,236.858,319.736,236.858z"/>
		</g>
		<g>
			<path class="st2" d="M319.735,242.858H192.265c-15.484,0-28.082-12.598-28.082-28.082s12.598-28.082,28.082-28.082h127.471
				c15.484,0,28.082,12.597,28.082,28.082S335.22,242.858,319.735,242.858z M192.265,198.694c-8.867,0-16.082,7.214-16.082,16.082
				c0,8.868,7.215,16.082,16.082,16.082h127.471c8.867,0,16.082-7.214,16.082-16.082c0-8.867-7.215-16.082-16.082-16.082H192.265z"
				/>
		</g>
		<g>
			<path class="st6" d="M337.759,298.521h-54.235v-14.655c20.322-10.126,34.29-31.1,34.29-55.347v-47.228
				c0-34.139-27.675-61.813-61.813-61.813h0c-34.138,0-61.813,27.674-61.813,61.813v47.228c0,24.229,13.947,45.189,34.244,55.323
				v14.679h-54.189c-23.153,0-41.923,18.769-41.923,41.922v52.078h247.362v-52.078C379.681,317.291,360.912,298.521,337.759,298.521
				z"/>
		</g>
		<g>
			<path class="st1" d="M268.905,307.782h-25.856c-8.073,0-14.618-6.545-14.618-14.618v0c0-8.073,6.545-14.618,14.618-14.618h25.856
				c8.073,0,14.618,6.545,14.618,14.618v0C283.523,301.237,276.979,307.782,268.905,307.782z"/>
		</g>
		<g>
			<g>
				<path class="st2" d="M182.55,398.521c-3.313,0-6-2.687-6-6v-32.058c0-3.313,2.687-6,6-6s6,2.687,6,6v32.058
					C188.55,395.835,185.863,398.521,182.55,398.521z"/>
			</g>
			<g>
				<path class="st2" d="M329.45,398.521c-3.313,0-6-2.687-6-6v-32.058c0-3.313,2.687-6,6-6s6,2.687,6,6v32.058
					C335.45,395.835,332.764,398.521,329.45,398.521z"/>
			</g>
		</g>
		<g>
			<path class="st2" d="M379.682,398.521H132.318c-3.313,0-6-2.687-6-6v-52.078c0-26.424,21.498-47.922,47.923-47.922h48.189v-5.082
				c-21.218-12.067-34.244-34.312-34.244-58.92v-47.228c0-37.393,30.421-67.813,67.813-67.813s67.813,30.421,67.813,67.813v47.228
				c0,24.631-13.044,46.885-34.29,58.947v5.055h48.235c26.425,0,47.923,21.498,47.923,47.922v52.078
				C385.682,395.835,382.995,398.521,379.682,398.521z M138.318,386.521h235.363v-46.078c0-19.808-16.115-35.922-35.923-35.922
				h-54.235c-3.313,0-6-2.687-6-6v-14.655c0-2.275,1.287-4.355,3.324-5.37c19.101-9.518,30.966-28.667,30.966-49.977v-47.228
				c0-30.776-25.038-55.813-55.813-55.813s-55.813,25.038-55.813,55.813v47.228c0,21.289,11.85,40.431,30.925,49.955
				c2.034,1.016,3.319,3.094,3.319,5.368v14.679c0,3.313-2.687,6-6,6h-54.189c-19.808,0-35.923,16.115-35.923,35.922V386.521z"/>
		</g>
		<g>
			<path class="st2" d="M256,336.259c-3.313,0-6-2.687-6-6V214.776c0-3.313,2.687-6,6-6h27.523c3.313,0,6,2.687,6,6s-2.687,6-6,6
				H262v109.483C262,333.573,259.313,336.259,256,336.259z"/>
		</g>
		<g>
			<path class="st2" d="M288.037,362.066c-1.321,0-2.65-0.434-3.76-1.327L256,337.963l-28.277,22.776
				c-2.582,2.079-6.357,1.671-8.437-0.909c-2.078-2.581-1.672-6.358,0.909-8.437l32.041-25.807c2.197-1.77,5.33-1.77,7.527,0
				l32.041,25.807c2.581,2.079,2.987,5.856,0.909,8.437C291.528,361.302,289.79,362.066,288.037,362.066z"/>
		</g>
		<g>
			<path class="st2" d="M268.905,313.782h-25.856c-11.369,0-20.618-9.25-20.618-20.618s9.249-20.618,20.618-20.618h25.856
				c11.369,0,20.618,9.25,20.618,20.618S280.274,313.782,268.905,313.782z M243.049,284.546c-4.752,0-8.618,3.866-8.618,8.618
				s3.866,8.618,8.618,8.618h25.856c4.752,0,8.618-3.866,8.618-8.618s-3.866-8.618-8.618-8.618H243.049z"/>
		</g>
	</g>
</g>
</svg>
