<?xml version="1.0" encoding="utf-8"?>
<!-- Generator: Adobe Illustrator 22.1.0, SVG Export Plug-In . SVG Version: 6.00 Build 0)  -->
<svg version="1.1" id="Icon_Set" xmlns="http://www.w3.org/2000/svg" xmlns:xlink="http://www.w3.org/1999/xlink" x="0px" y="0px"
	 viewBox="0 0 512 512" style="enable-background:new 0 0 512 512;" xml:space="preserve">
<style type="text/css">
	.st0{fill:#F0C48A;}
	.st1{fill:#FFFFFF;}
	.st2{fill:#4C4372;}
	.st3{fill:#E8677D;}
	.st4{fill:#FD919E;}
	.st5{fill:#7BABF1;}
	.st6{fill:#D3E6F8;}
	.st7{fill:#A4CFF2;}
</style>
<g>
	<g>
		<g>
			<circle class="st0" cx="256" cy="256" r="207"/>
		</g>
	</g>
	<g>
		<g>
			<path class="st1" d="M433.212,266.591c-17.667-30.54-43.072-56.153-73.468-74.072c-31.318-18.462-67.192-28.22-103.744-28.22
				s-72.426,9.758-103.744,28.22c-30.396,17.918-55.801,43.532-73.468,74.072c-1.075,1.858-1.075,4.15,0,6.009
				c17.667,30.54,43.072,56.153,73.468,74.072c31.318,18.462,67.192,28.221,103.744,28.221s72.426-9.758,103.744-28.221
				c30.396-17.918,55.801-43.532,73.468-74.072C434.287,270.742,434.287,268.45,433.212,266.591z"/>
		</g>
	</g>
	<g>
		<g>
			<g>
				<path class="st2" d="M433.212,266.591c-17.667-30.54-43.072-56.153-73.468-74.072c-31.318-18.462-67.192-28.22-103.744-28.22
					s-72.426,9.758-103.744,28.22c-30.396,17.918-55.801,43.532-73.468,74.072c-1.075,1.858-1.075,4.15,0,6.009
					c17.667,30.54,43.072,56.153,73.468,74.072c31.318,18.462,67.192,28.221,103.744,28.221s72.426-9.758,103.744-28.221
					c30.396-17.918,55.801-43.532,73.468-74.072C434.287,270.742,434.287,268.45,433.212,266.591z M353.65,336.334
					c-29.473,17.375-63.24,26.558-97.65,26.558s-68.177-9.184-97.65-26.558c-27.617-16.28-50.858-39.308-67.4-66.739
					c16.542-27.431,39.783-50.458,67.4-66.739c29.473-17.374,63.24-26.558,97.65-26.558s68.177,9.184,97.65,26.558
					c27.617,16.28,50.858,39.308,67.4,66.739C404.509,297.026,381.267,320.054,353.65,336.334z"/>
			</g>
		</g>
	</g>
	<g>
		<g>
			<path class="st3" d="M387.312,138.284L387.312,138.284c-11.669-11.669-30.588-11.669-42.257,0l-41.137,41.137l42.257,42.257
				l41.137-41.137C398.98,168.872,398.98,149.953,387.312,138.284z"/>
		</g>
	</g>
	<g>
		<g>
			<g>
				<path class="st2" d="M391.554,134.042c-13.99-13.989-36.752-13.989-50.742,0l-41.137,41.137c-2.343,2.343-2.343,6.142,0,8.485
					l42.256,42.257c1.125,1.125,2.651,1.757,4.243,1.757s3.118-0.632,4.243-1.757l41.137-41.137
					C405.544,170.794,405.544,148.031,391.554,134.042z M383.069,176.298l-36.895,36.895l-33.771-33.771l36.894-36.895
					c9.31-9.311,24.46-9.311,33.771,0C392.38,151.838,392.38,166.987,383.069,176.298z"/>
			</g>
		</g>
	</g>
	<g>
		<g>
			
				<ellipse transform="matrix(0.7071 -0.7071 0.7071 0.7071 -115.6524 259.9821)" class="st4" cx="256" cy="269.596" rx="112.871" ry="112.871"/>
		</g>
	</g>
	<g>
		<g>
			<circle class="st5" cx="256" cy="269.596" r="75.11"/>
		</g>
	</g>
	<g>
		<g>
			<g>
				<path class="st2" d="M256,150.725c-65.546,0-118.872,53.325-118.872,118.871S190.454,388.467,256,388.467
					s118.872-53.326,118.872-118.872S321.546,150.725,256,150.725z M256,376.467c-58.929,0-106.872-47.942-106.872-106.872
					c0-58.929,47.942-106.871,106.872-106.871s106.872,47.942,106.872,106.871C362.872,328.525,314.929,376.467,256,376.467z"/>
			</g>
		</g>
	</g>
	<g>
		<g>
			<g>
				<path class="st2" d="M256,188.486c-44.724,0-81.109,36.386-81.109,81.109c0,44.724,36.386,81.11,81.109,81.11
					s81.109-36.386,81.109-81.11C337.109,224.872,300.724,188.486,256,188.486z M256,338.706c-38.107,0-69.109-31.002-69.109-69.11
					c0-38.107,31.002-69.109,69.109-69.109s69.109,31.002,69.109,69.109C325.109,307.703,294.107,338.706,256,338.706z"/>
			</g>
		</g>
	</g>
	<g>
		<g>
			<path class="st2" d="M256,150.725c-3.313,0-6,2.687-6,6v37.762c0,3.313,2.687,6,6,6s6-2.687,6-6v-37.762
				C262,153.411,259.313,150.725,256,150.725z"/>
		</g>
	</g>
	<g>
		<g>
			<path class="st2" d="M340.055,185.541c-2.343-2.343-6.143-2.343-8.485,0l-26.702,26.702c-2.343,2.343-2.343,6.142,0,8.485
				c1.171,1.171,2.707,1.757,4.243,1.757s3.071-0.586,4.243-1.757l26.702-26.702C342.398,191.683,342.398,187.884,340.055,185.541z"
				/>
		</g>
	</g>
	<g>
		<g>
			<path class="st2" d="M368.872,263.596h-37.762c-3.313,0-6,2.687-6,6s2.687,6,6,6h37.762c3.313,0,6-2.687,6-6
				S372.185,263.596,368.872,263.596z"/>
		</g>
	</g>
</g>
</svg>
