<?xml version="1.0" encoding="utf-8"?>
<!-- Generator: Adobe Illustrator 22.1.0, SVG Export Plug-In . SVG Version: 6.00 Build 0)  -->
<svg version="1.1" id="Icon_Set" xmlns="http://www.w3.org/2000/svg" xmlns:xlink="http://www.w3.org/1999/xlink" x="0px" y="0px"
	 viewBox="0 0 512 512" style="enable-background:new 0 0 512 512;" xml:space="preserve">
<style type="text/css">
	.st0{fill:#F0C48A;}
	.st1{fill:#FD919E;}
	.st2{fill:#4C4372;}
	.st3{fill:#D3E6F8;}
	.st4{fill:#A4CFF2;}
	.st5{fill:#7BABF1;}
	.st6{fill:#FFFFFF;}
	.st7{fill:#E8677D;}
	.st8{fill:none;stroke:#4C4372;stroke-width:12;stroke-linecap:round;stroke-linejoin:round;stroke-miterlimit:10;}
</style>
<g id="Hair">
	<g>
		<g>
			<circle class="st0" cx="256" cy="256" r="207"/>
		</g>
	</g>
	<g>
		<g>
			<path class="st3" d="M275.878,231.5l-0.422,7.428c-0.933,16.426,1.721,32.776,7.005,48.356c1.051,3.098,1.572,6.441,1.457,9.92
				c-0.471,14.241-11.909,26.045-26.13,26.93c-16.238,1.011-29.722-11.859-29.722-27.878c0-3.434,0.62-6.723,1.753-9.761
				c5.732-15.36,7.615-31.892,6.685-48.261l-0.383-6.736c-0.357-6.281-5.554-11.191-11.845-11.191H106.144V366h299.712V220.308
				H287.723C281.432,220.308,276.235,225.219,275.878,231.5z"/>
		</g>
		<g>
			<path class="st1" d="M276.952,265.436c1.225,7.4,3.086,14.705,5.509,21.848c1.051,3.098,1.572,6.441,1.457,9.92
				c-0.471,14.241-11.909,26.045-26.13,26.93c-16.238,1.012-29.722-11.859-29.722-27.877c0-3.433,0.62-6.723,1.753-9.761
				c2.548-6.828,4.331-13.887,5.449-21.06H106.144V366h299.712V265.436H276.952z"/>
		</g>
		<g>
			<g>
				<circle class="st7" cx="141.005" cy="302.366" r="13.352"/>
			</g>
			<g>
				<circle class="st7" cx="193.703" cy="329.07" r="13.352"/>
			</g>
			<g>
				<circle class="st7" cx="318.296" cy="302.366" r="13.352"/>
			</g>
			<g>
				<circle class="st7" cx="370.995" cy="329.07" r="13.352"/>
			</g>
		</g>
		<g>
			<path class="st2" d="M405.856,372H106.144c-3.314,0-6-2.687-6-6V220.309c0-3.313,2.686-6,6-6h118.132
				c9.464,0,17.298,7.402,17.835,16.851l0.382,6.736c1.04,18.312-1.333,35.368-7.053,50.698c-0.913,2.445-1.375,5.023-1.375,7.663
				c0,6.117,2.457,11.795,6.917,15.987c4.458,4.188,10.291,6.279,16.433,5.902c11.13-0.693,20.137-9.979,20.506-21.141
				c0.088-2.676-0.296-5.299-1.143-7.794c-5.791-17.076-8.251-34.108-7.313-50.624l0.422-7.428
				c0.536-9.449,8.371-16.852,17.835-16.852h118.132c3.314,0,6,2.687,6,6V366C411.856,369.313,409.17,372,405.856,372z M112.144,360
				h287.712V226.309H287.724c-3.107,0-5.679,2.43-5.855,5.531l0,0l-0.422,7.428c-0.851,14.973,1.403,30.479,6.697,46.09
				c1.312,3.868,1.908,7.921,1.771,12.045c-0.571,17.274-14.519,31.647-31.754,32.721c-9.475,0.595-18.499-2.653-25.396-9.134
				c-6.8-6.391-10.7-15.405-10.7-24.732c0-4.077,0.717-8.066,2.133-11.858c5.136-13.764,7.261-29.181,6.315-45.823l-0.382-6.735
				c-0.176-3.102-2.748-5.531-5.855-5.531H112.144V360z M275.878,231.5h0.01H275.878z"/>
		</g>
		<g>
			<path class="st2" d="M255.994,308.938c-3.141,0-5.78-2.442-5.982-5.62c-0.019-0.3-1.879-30.386,0.002-67.228
				c2.546-49.861,10.37-87.825,23.254-112.838c1.518-2.948,5.136-4.106,8.082-2.587c2.946,1.518,4.104,5.136,2.586,8.081
				c-29.007,56.313-22.022,172.644-21.948,173.812c0.209,3.308-2.301,6.158-5.608,6.367
				C256.25,308.935,256.122,308.938,255.994,308.938z"/>
		</g>
		<g>
			<path class="st2" d="M405.856,372H106.144c-3.314,0-6-2.687-6-6V265.436c0-3.313,2.686-6,6-6h129.124
				c1.752,0,3.417,0.767,4.558,2.098c1.14,1.331,1.641,3.095,1.371,4.826c-1.208,7.757-3.145,15.237-5.755,22.234
				c-0.913,2.445-1.375,5.023-1.375,7.663c0,6.118,2.457,11.796,6.918,15.987c4.457,4.188,10.288,6.279,16.432,5.901
				c11.13-0.692,20.137-9.979,20.507-21.14c0.088-2.676-0.296-5.299-1.143-7.796c-2.557-7.538-4.491-15.208-5.746-22.795
				c-0.288-1.738,0.204-3.517,1.344-4.86c1.14-1.344,2.813-2.119,4.576-2.119h128.903c3.314,0,6,2.687,6,6V366
				C411.856,369.313,409.17,372,405.856,372z M112.144,360h287.712v-88.564H284.23c1.04,4.65,2.349,9.309,3.913,13.92
				c1.312,3.87,1.908,7.923,1.771,12.047c-0.571,17.275-14.52,31.647-31.754,32.72c-9.482,0.586-18.498-2.652-25.395-9.133
				c-6.8-6.39-10.701-15.404-10.701-24.732c0-4.077,0.717-8.066,2.133-11.858c1.544-4.14,2.826-8.479,3.83-12.963H112.144V360z"/>
		</g>
		<g>
			<g>
				<path class="st2" d="M141.005,321.718c-10.671,0-19.352-8.681-19.352-19.352s8.681-19.353,19.352-19.353
					c10.67,0,19.352,8.682,19.352,19.353S151.676,321.718,141.005,321.718z M141.005,295.014c-4.054,0-7.352,3.299-7.352,7.353
					s3.298,7.352,7.352,7.352s7.352-3.298,7.352-7.352S145.059,295.014,141.005,295.014z"/>
			</g>
			<g>
				<path class="st2" d="M193.704,348.421c-10.671,0-19.352-8.681-19.352-19.352s8.681-19.352,19.352-19.352
					c10.67,0,19.352,8.681,19.352,19.352S204.374,348.421,193.704,348.421z M193.704,321.718c-4.054,0-7.352,3.298-7.352,7.352
					s3.298,7.352,7.352,7.352s7.352-3.298,7.352-7.352S197.757,321.718,193.704,321.718z"/>
			</g>
			<g>
				<path class="st2" d="M318.296,321.718c-10.67,0-19.352-8.681-19.352-19.352s8.681-19.353,19.352-19.353
					c10.671,0,19.352,8.682,19.352,19.353S328.967,321.718,318.296,321.718z M318.296,295.014c-4.054,0-7.352,3.299-7.352,7.353
					s3.298,7.352,7.352,7.352s7.352-3.298,7.352-7.352S322.35,295.014,318.296,295.014z"/>
			</g>
			<g>
				<path class="st2" d="M370.995,348.421c-10.671,0-19.352-8.681-19.352-19.352s8.681-19.352,19.352-19.352
					c10.67,0,19.352,8.681,19.352,19.352S381.665,348.421,370.995,348.421z M370.995,321.718c-4.054,0-7.352,3.298-7.352,7.352
					s3.298,7.352,7.352,7.352s7.352-3.298,7.352-7.352S375.048,321.718,370.995,321.718z"/>
			</g>
		</g>
	</g>
</g>
</svg>
