<?xml version="1.0" encoding="utf-8"?>
<!-- Generator: Adobe Illustrator 22.1.0, SVG Export Plug-In . SVG Version: 6.00 Build 0)  -->
<svg version="1.1" id="Icon_Set" xmlns="http://www.w3.org/2000/svg" xmlns:xlink="http://www.w3.org/1999/xlink" x="0px" y="0px"
	 viewBox="0 0 512 512" style="enable-background:new 0 0 512 512;" xml:space="preserve">
<style type="text/css">
	.st0{fill:#F0C48A;}
	.st1{fill:#FD919E;}
	.st2{fill:#4C4372;}
	.st3{fill:#D3E6F8;}
	.st4{fill:#A4CFF2;}
	.st5{fill:#7BABF1;}
	.st6{fill:#FFFFFF;}
	.st7{fill:#E8677D;}
	.st8{fill:none;stroke:#4C4372;stroke-width:12;stroke-linecap:round;stroke-linejoin:round;stroke-miterlimit:10;}
</style>
<g id="Liver">
	<g>
		<g>
			<circle class="st0" cx="256" cy="256" r="207"/>
		</g>
	</g>
	<g>
		<g>
			<g>
				<path class="st3" d="M238.864,380.02c-6.904,0-12.5-5.597-12.5-12.5c0-46.001-25.517-72.218-25.774-72.478
					c-4.866-4.897-4.84-12.812,0.058-17.678c4.898-4.865,12.812-4.84,17.677,0.059c1.349,1.357,33.039,33.902,33.039,90.097
					C251.364,374.424,245.767,380.02,238.864,380.02z"/>
			</g>
		</g>
		<g>
			<g>
				<path class="st2" d="M238.864,386.021c-10.201,0-18.5-8.299-18.5-18.5c0-43.035-23.817-68.028-24.058-68.276
					c-7.162-7.209-7.124-18.945,0.113-26.136c3.492-3.468,8.12-5.375,13.038-5.375c0.021,0,0.041,0,0.062,0
					c4.942,0.016,9.581,1.956,13.063,5.463c1.418,1.427,34.782,35.67,34.782,94.324
					C257.364,377.722,249.064,386.021,238.864,386.021z M209.457,279.733c-1.728,0-3.354,0.67-4.582,1.889
					c-2.542,2.526-2.556,6.649-0.03,9.192c0.277,0.279,27.518,28.286,27.518,76.706c0,3.584,2.916,6.5,6.5,6.5s6.5-2.916,6.5-6.5
					c0-53.762-30.017-84.581-31.295-85.867c-1.225-1.233-2.854-1.914-4.59-1.92C209.472,279.733,209.464,279.733,209.457,279.733z"
					/>
			</g>
		</g>
		<g>
			<g>
				<path class="st5" d="M285.969,321.377c-3.385,0-6.722-1.562-8.866-4.508c-0.523-0.719-12.935-17.955-22.873-48.288
					c-9.073-27.691-17.818-72.301-7.959-127.567c1.063-5.958,6.752-9.928,12.711-8.862c5.957,1.062,9.925,6.754,8.862,12.711
					c-17.291,96.923,26.529,158.496,26.974,159.107c3.562,4.892,2.484,11.745-2.408,15.307
					C290.463,320.694,288.205,321.377,285.969,321.377z"/>
			</g>
		</g>
		<g>
			<g>
				<path class="st2" d="M285.969,327.378c-5.408,0-10.536-2.607-13.717-6.976c-0.549-0.755-13.508-18.771-23.725-49.953
					c-9.287-28.346-18.243-73.994-8.164-130.488c0.795-4.46,3.279-8.342,6.994-10.933c3.716-2.592,8.219-3.582,12.68-2.782
					c4.457,0.795,8.339,3.279,10.929,6.995c2.59,3.715,3.579,8.217,2.783,12.676c-16.713,93.688,25.503,153.942,25.932,154.54
					c2.652,3.643,3.733,8.124,3.029,12.598c-0.704,4.475-3.108,8.406-6.77,11.072C293.022,326.253,289.573,327.378,285.969,327.378z
					 M257.043,137.98c-1.004,0-1.981,0.305-2.821,0.891c-1.086,0.758-1.812,1.893-2.045,3.197
					c-9.64,54.036-1.104,97.608,7.754,124.645c9.636,29.409,21.522,45.938,22.024,46.628c0.942,1.294,2.406,2.037,4.014,2.037
					c1.048,0,2.053-0.329,2.907-0.951c1.072-0.78,1.774-1.93,1.98-3.237c0.206-1.308-0.11-2.617-0.89-3.688
					c-0.46-0.631-45.763-64.292-28.03-163.691c0.232-1.304-0.056-2.619-0.813-3.706c-0.757-1.086-1.892-1.812-3.195-2.044
					C257.632,138.006,257.336,137.98,257.043,137.98z"/>
			</g>
		</g>
		<g>
			<g>
				<path class="st7" d="M334.578,321.377c-3.385,0-6.722-1.562-8.866-4.508c-0.523-0.719-12.935-17.955-22.873-48.288
					c-9.073-27.691-17.818-72.301-7.959-127.567c1.063-5.958,6.752-9.928,12.711-8.862c5.957,1.062,9.925,6.754,8.862,12.711
					c-17.291,96.923,26.529,158.496,26.974,159.107c3.562,4.892,2.484,11.745-2.408,15.307
					C339.073,320.694,336.815,321.377,334.578,321.377z"/>
			</g>
		</g>
		<g>
			<g>
				<path class="st2" d="M334.579,327.378c-5.408,0-10.536-2.607-13.717-6.976c-0.549-0.755-13.508-18.771-23.725-49.953
					c-9.288-28.346-18.243-73.994-8.164-130.488c0.795-4.459,3.279-8.342,6.994-10.933c3.716-2.592,8.218-3.582,12.68-2.782
					c4.457,0.795,8.339,3.279,10.93,6.995c2.59,3.715,3.579,8.217,2.783,12.676c-16.715,93.698,25.502,153.941,25.931,154.539
					c2.653,3.644,3.734,8.125,3.03,12.599c-0.704,4.475-3.108,8.406-6.77,11.072C341.632,326.253,338.183,327.378,334.579,327.378z
					 M305.652,137.98c-1.004,0-1.981,0.305-2.821,0.891c-1.085,0.757-1.812,1.893-2.044,3.197
					c-9.64,54.036-1.104,97.608,7.754,124.645c9.636,29.409,21.522,45.938,22.024,46.628c0.942,1.294,2.406,2.037,4.014,2.037
					c1.048,0,2.053-0.329,2.907-0.951c1.072-0.78,1.774-1.93,1.98-3.237c0.206-1.308-0.11-2.617-0.89-3.688
					c-0.458-0.628-45.772-64.237-28.03-163.691c0.232-1.304-0.056-2.619-0.813-3.706c-0.757-1.086-1.892-1.812-3.195-2.044
					C306.242,138.007,305.946,137.98,305.652,137.98z"/>
			</g>
		</g>
		<g>
			<path class="st1" d="M86.758,337.234V248.34c0-49.192,39.878-89.07,89.07-89.07h206.628c23.63,0,42.786,19.156,42.786,42.786v0
				c0,20.355-14.34,37.892-34.29,41.934l-43.741,8.862c-66.206,13.413-124.486,52.315-162.267,108.312l0,0
				c-7.954,11.789-21.246,18.856-35.468,18.856h-19.931C105.914,380.02,86.758,360.864,86.758,337.234z"/>
		</g>
		<g>
			<path class="st7" d="M394.782,161.081c3.875,6.437,6.107,13.974,6.107,22.033l0,0c0,20.355-14.341,37.893-34.29,41.935
				l-43.741,8.861c-66.206,13.414-124.486,52.315-162.267,108.312h0c-7.954,11.79-21.246,18.856-35.468,18.856H105.19
				c-4.286,0-8.422-0.639-12.326-1.811c7.485,12.434,21.109,20.752,36.68,20.752h19.931c14.222,0,27.514-7.066,35.468-18.855h0
				c37.781-55.998,96.061-94.899,162.267-108.312l43.741-8.862c19.95-4.041,34.29-21.579,34.29-41.934l0,0
				C425.242,182.711,412.402,166.374,394.782,161.081z"/>
		</g>
		<g>
			<path class="st2" d="M149.475,386.021h-19.931c-26.901,0-48.786-21.886-48.786-48.786V248.34c0-52.422,42.648-95.07,95.07-95.07
				h206.628c26.901,0,48.786,21.886,48.786,48.786c0,23.116-16.443,43.225-39.099,47.815l-43.741,8.861
				c-32.18,6.52-62.344,19.068-89.653,37.297c-27.309,18.229-50.467,41.272-68.832,68.49
				C180.834,377.982,165.716,386.021,149.475,386.021z M175.828,165.27c-45.805,0-83.07,37.266-83.07,83.07v88.895
				c0,20.284,16.502,36.786,36.786,36.786h19.931c12.246,0,23.646-6.061,30.494-16.212c19.241-28.518,43.504-52.661,72.117-71.76
				s60.216-32.246,93.933-39.078l43.741-8.861c17.083-3.461,29.482-18.624,29.482-36.054c0-20.284-16.502-36.786-36.786-36.786
				H175.828z"/>
		</g>
		<g>
			<path class="st2" d="M292.167,275.646c-2.208,0-4.332-1.223-5.379-3.335c-0.353-0.711-8.689-17.681-12.929-40.372
				c-5.729-30.667-1.054-57.048,13.521-76.292c2.001-2.643,5.765-3.16,8.406-1.161c2.642,2.001,3.161,5.764,1.161,8.405
				c-30.487,40.255,0.277,103.454,0.592,104.088c1.473,2.969,0.26,6.568-2.709,8.041
				C293.972,275.445,293.062,275.646,292.167,275.646z"/>
		</g>
	</g>
</g>
</svg>
