<?xml version="1.0" encoding="utf-8"?>
<!-- Generator: Adobe Illustrator 22.1.0, SVG Export Plug-In . SVG Version: 6.00 Build 0)  -->
<svg version="1.1" id="Layer_1" xmlns="http://www.w3.org/2000/svg" xmlns:xlink="http://www.w3.org/1999/xlink" x="0px" y="0px"
	 viewBox="0 0 512 512" style="enable-background:new 0 0 512 512;" xml:space="preserve">
<style type="text/css">
	.st0{fill:#6770E6;}
	.st1{fill:#5861C7;}
	.st2{fill:#FFEFE4;}
	.st3{fill:#D476E2;}
	.st4{fill:#EA82FA;}
	.st5{fill:#B665C2;}
	.st6{fill:#69EBFC;}
	.st7{fill:#FF8354;}
	.st8{fill:#333399;}
	.st9{fill:#E0734A;}
	.st10{fill:#FFAC8C;}
	.st11{fill:#382F8B;}
	.st12{fill:#C7FCFE;}
	.st13{fill:#EDD4C2;}
	.st14{fill:#8F95E6;}
	.st15{fill:#A1F1FC;}
	.st16{fill:#FFF7F2;}
	.st17{opacity:0.8;fill:#A1F1FC;}
	.st18{fill:#4C54AD;}
	.st19{fill:#5FD4E3;}
	.st20{fill:#FFE4D1;}
	.st21{fill:#5ED4E3;}
	.st22{fill:#56C1CF;}
	.st23{fill:#9FA5FF;}
	.st24{fill:#C46541;}
	.st25{fill:#FFCAB5;}
	.st26{fill:#5A62C9;}
	.st27{fill:#BABEFF;}
</style>
<g>
	<rect y="8" class="st5" width="512" height="20"/>
	<rect y="8" class="st4" width="512" height="10"/>
	<path class="st8" d="M198,6.496v23.007c0,3.588,2.909,6.496,6.496,6.496h21.007c3.588,0,6.496,2.909,6.496,6.496V68h48V42.496
		c0-3.588,2.909-6.496,6.496-6.496h21.007c3.588,0,6.496-2.909,6.496-6.496V6.496C314,2.909,311.091,0,307.504,0H204.496
		C200.909,0,198,2.909,198,6.496z"/>
	<g>
		<path class="st3" d="M280,68h-48l17.439,20.927C251.062,90.874,253.465,92,256,92l0,0c2.535,0,4.938-1.126,6.561-3.073L280,68z"/>
	</g>
	<path class="st0" d="M489.5,468h-467c-12.15,0-22,9.85-22,22v0c0,12.15,9.85,22,22,22h467c12.15,0,22-9.85,22-22v0
		C511.5,477.85,501.65,468,489.5,468z"/>
	<path class="st1" d="M489.5,492h-467c-8.548,0-15.952-4.878-19.594-12c-1.535,3.001-2.406,6.398-2.406,10c0,12.15,9.85,22,22,22
		h467c12.15,0,22-9.85,22-22c0-3.602-0.871-6.999-2.406-10C505.452,487.122,498.048,492,489.5,492z"/>
	<path class="st1" d="M307.503,0H204.497C200.909,0,198,2.909,198,6.497v10c0-3.588,2.909-6.497,6.497-6.497h103.007
		c3.588,0,6.497,2.909,6.497,6.497v-10C314,2.909,311.091,0,307.503,0z"/>
	<path class="st3" d="M370.118,461.883l-68.609-36.706c-21.388-11.443-34.741-33.73-34.741-57.986V240.836
		c0-36.32,29.443-65.763,65.763-65.763h0c29.292,0,55.053,19.374,63.181,47.515l51.171,177.173
		C460.038,445.308,411.92,484.248,370.118,461.883z"/>
	<path class="st3" d="M141.882,461.883l68.609-36.706c21.388-11.443,34.741-33.73,34.741-57.986V240.836
		c0-36.32-29.443-65.763-65.763-65.763h0c-29.292,0-55.053,19.374-63.181,47.515L65.116,399.761
		C51.961,445.308,100.079,484.248,141.882,461.883z"/>
	<path class="st4" d="M335.744,195.073L335.744,195.073c28.223,0,53.308,16.356,63.815,40.832l-3.846-13.317
		c-8.128-28.142-33.889-47.515-63.181-47.515h0c-36.32,0-65.763,29.443-65.763,65.763v20
		C266.768,224.516,297.65,195.073,335.744,195.073z"/>
	<path class="st4" d="M176.256,195.073L176.256,195.073c-28.223,0-53.308,16.356-63.815,40.832l3.846-13.317
		c8.128-28.142,33.889-47.515,63.181-47.515h0c36.32,0,65.763,29.443,65.763,65.763v20
		C245.231,224.516,214.35,195.073,176.256,195.073z"/>
	<path class="st0" d="M409.617,358.746l-22.613-26.921c-1.161-1.382-2.65-2.45-4.33-3.105l-44.15-17.229
		c-0.992-0.387-2.006-0.611-3.014-0.697l-14.738-11.306l51.78-24.207c5.387-2.519,7.712-8.927,5.194-14.315
		c-2.518-5.386-8.925-7.713-14.315-5.194l-19.876,9.292l5.631-17.831c1.791-5.671-1.355-11.721-7.026-13.512
		c-5.67-1.792-11.721,1.354-13.512,7.026l-11.591,36.704l-15.541,7.265l-34.747-26.655V142.768c0-5.947-4.822-10.768-10.768-10.768
		c-5.947,0-10.768,4.822-10.768,10.768v115.293l-34.747,26.655l-15.542-7.266l-11.591-36.704c-1.791-5.671-7.841-8.818-13.511-7.026
		c-5.671,1.791-8.817,7.841-7.026,13.512l5.631,17.831l-19.877-9.292c-5.387-2.522-11.797-0.193-14.315,5.194
		c-2.519,5.388-0.193,11.797,5.195,14.315l51.78,24.207l-14.738,11.306c-1.009,0.085-2.023,0.309-3.014,0.696l-44.15,17.229
		c-1.681,0.655-3.17,1.724-4.331,3.105l-22.613,26.921c-3.825,4.553-3.234,11.346,1.319,15.171c2.019,1.695,4.476,2.523,6.921,2.523
		c3.071,0,6.121-1.307,8.251-3.843l20.845-24.814l23.877-9.318l-6.472,33.796c-1.118,5.842,2.71,11.483,8.551,12.601
		c0.684,0.131,1.365,0.195,2.037,0.195c5.063,0,9.576-3.588,10.564-8.745l8.921-46.587l15.678-12.027l2.557,28.477
		c0.503,5.595,5.2,9.806,10.713,9.806c0.322,0,0.648-0.015,0.975-0.044c5.924-0.532,10.294-5.765,9.762-11.688l-3.777-42.069
		L256,276.945l32.895,25.234l-3.777,42.07c-0.532,5.924,3.838,11.156,9.762,11.688c0.328,0.029,0.653,0.044,0.976,0.044
		c5.511,0,10.21-4.211,10.713-9.806l2.557-28.478l15.679,12.028l8.921,46.587c0.987,5.157,5.5,8.745,10.564,8.745
		c0.671,0,1.353-0.063,2.037-0.195c5.841-1.118,9.669-6.76,8.551-12.601l-6.472-33.796l23.878,9.318l20.845,24.814
		c2.131,2.536,5.18,3.843,8.251,3.843c2.445,0,4.903-0.828,6.921-2.523C412.852,370.092,413.442,363.299,409.617,358.746z"/>
	<path class="st14" d="M256,152c5.947,0,10.768,4.822,10.768,10.768v-20c0-5.947-4.822-10.768-10.768-10.768
		c-5.947,0-10.768,4.822-10.768,10.768v20C245.232,156.822,250.053,152,256,152z"/>
</g>
</svg>
