<svg id="Icons" xmlns="http://www.w3.org/2000/svg" viewBox="0 0 512 512"><defs><style>.cls-1{fill:#e2a427;}.cls-2{fill:#efb732;}.cls-3{fill:#8d00af;}.cls-4{fill:#aa0dd1;}.cls-5{fill:#decee5;}.cls-6{fill:#f4e6f4;}.cls-7{fill:#fff;}.cls-8{fill:#c52dea;}</style></defs><title>50-Virus-Icons</title><circle class="cls-1" cx="256" cy="256" r="256"/><circle class="cls-2" cx="256" cy="256" r="208.88"/><path class="cls-3" d="M371.78,350.39c0,35.9-.74,62.44-9,81.82-10.27,24-30.91,34.68-66.9,34.68-30.81,0-52.63-3.52-66.21-21-13-16.78-15.63-44.11-15.63-82.76h20c0,39.61,3.31,60,11.43,70.5,7.51,9.69,21.18,13.29,50.41,13.29,51.55,0,55.68-20.33,55.94-96.55a10,10,0,0,1,10-10,9.75,9.75,0,0,1,2.43.3A10,10,0,0,1,371.78,350.39Z"/><path class="cls-4" d="M364.21,340.66c0,36.34-.61,63.15-8.17,82.67-9.29,24-27.94,34.68-60.48,34.68-27.86,0-47.59-3.51-59.87-21-10.84-15.47-13.7-39.89-14.08-73.88H234c0,39.61,3.31,60,11.43,70.5,7.51,9.69,21.18,13.29,50.41,13.29,51.55,0,55.68-20.33,55.94-96.55a10,10,0,0,1,10-10A9.75,9.75,0,0,1,364.21,340.66Z"/><path class="cls-5" d="M408.26,340.36a46.47,46.47,0,1,1-92.94,0,45.08,45.08,0,0,1,.25-4.82,46.47,46.47,0,0,1,92.44,0A45.08,45.08,0,0,1,408.26,340.36Z"/><path class="cls-6" d="M408,335.54a46.47,46.47,0,0,1-92.44,0,46.47,46.47,0,0,1,92.44,0Z"/><path class="cls-5" d="M385.87,340.36a24.08,24.08,0,1,1-48.16,0c0-.84.05-1.68.13-2.5a21.71,21.71,0,0,1,.44-2.7,24.08,24.08,0,0,1,47,0,21.71,21.71,0,0,1,.44,2.7C385.82,338.68,385.87,339.52,385.87,340.36Z"/><path class="cls-6" d="M385.3,335.16a24.07,24.07,0,0,1-47,0,24.08,24.08,0,0,1,47,0Z"/><ellipse class="cls-7" cx="371.79" cy="329.96" rx="6.47" ry="12.83" transform="translate(-125.21 339.69) rotate(-42.71)"/><ellipse class="cls-7" cx="376.64" cy="306.06" rx="6.47" ry="16.01" transform="translate(-56.69 524.6) rotate(-65.86)"/><ellipse class="cls-7" cx="397.35" cy="326.09" rx="4.64" ry="11.49" transform="translate(-80.03 135.49) rotate(-17.61)"/><path class="cls-3" d="M198.75,321.55h50.5a0,0,0,0,1,0,0V351a12.09,12.09,0,0,1-12.09,12.09H210.83A12.09,12.09,0,0,1,198.75,351V321.55A0,0,0,0,1,198.75,321.55Z"/><path class="cls-3" d="M341.73,245.24,286.85,301a73.9,73.9,0,0,1-52.7,22.09h-20.3A73.9,73.9,0,0,1,161.15,301l-54.88-55.78a7.74,7.74,0,0,1,5-13.15l.52,0h26.34a39.72,39.72,0,0,1,29,12.61L189.86,269a26.58,26.58,0,0,0,19.4,8.43h29.48a26.58,26.58,0,0,0,19.4-8.43l22.72-24.34a39.72,39.72,0,0,1,29-12.61h26.34l.52,0A7.74,7.74,0,0,1,341.73,245.24Z"/><path class="cls-4" d="M336.74,232.09,286.85,282.8a73.89,73.89,0,0,1-52.7,22.08h-20.3a73.89,73.89,0,0,1-52.7-22.08l-49.89-50.71.52,0h26.34a39.72,39.72,0,0,1,29,12.61L189.86,269a26.58,26.58,0,0,0,19.4,8.43h29.48a26.58,26.58,0,0,0,19.4-8.43l22.72-24.34a39.72,39.72,0,0,1,29-12.61h26.34Z"/><ellipse class="cls-8" cx="287.32" cy="254.46" rx="20.4" ry="7.59" transform="translate(-95.78 277.69) rotate(-45)"/><ellipse class="cls-8" cx="259.52" cy="280.5" rx="12.67" ry="5.63" transform="translate(-110.56 185.27) rotate(-32.79)"/><path class="cls-5" d="M292.63,77.11V95.66h14.42a9.11,9.11,0,0,1,9.1,9.56l-6.27,126.85h26.34V105.6a28.49,28.49,0,0,0-28.48-28.49Z"/><path class="cls-6" d="M292.63,77.11v12.1h15.23a14.48,14.48,0,0,1,14.47,15.19l-4.77,127.67h18.66V105.6a28.49,28.49,0,0,0-28.48-28.49Z"/><rect class="cls-5" x="265.03" y="60.14" width="27.6" height="54.16" rx="12.57"/><path class="cls-6" d="M265,72.71V88.88a12.57,12.57,0,0,0,12.57,12.58h2.46a12.57,12.57,0,0,0,12.57-12.58V72.71a12.57,12.57,0,0,0-12.57-12.57H277.6A12.57,12.57,0,0,0,265,72.71Z"/><ellipse class="cls-7" cx="325.98" cy="92.77" rx="3.61" ry="11.09" transform="translate(5.09 201.86) rotate(-34.66)"/><ellipse class="cls-7" cx="332.06" cy="113.77" rx="2.51" ry="7.7"/><ellipse class="cls-7" cx="273.56" cy="76.27" rx="4.22" ry="10.96"/><path class="cls-5" d="M155.37,77.11V95.66H141a9.11,9.11,0,0,0-9.1,9.56l6.27,126.85H111.78V105.6a28.49,28.49,0,0,1,28.48-28.49Z"/><path class="cls-6" d="M155.37,77.11v12.1H140.14a14.48,14.48,0,0,0-14.47,15.19l4.77,127.67H111.78V105.6a28.49,28.49,0,0,1,28.48-28.49Z"/><rect class="cls-5" x="155.37" y="60.14" width="27.6" height="54.16" rx="12.57"/><path class="cls-6" d="M183,72.71V88.88a12.57,12.57,0,0,1-12.57,12.58h-2.46a12.57,12.57,0,0,1-12.57-12.58V72.71a12.57,12.57,0,0,1,12.57-12.57h2.46A12.57,12.57,0,0,1,183,72.71Z"/><ellipse class="cls-7" cx="122.02" cy="92.77" rx="11.09" ry="3.61" transform="translate(-23.68 140.37) rotate(-55.34)"/><ellipse class="cls-7" cx="115.94" cy="113.77" rx="2.51" ry="7.7"/><ellipse class="cls-7" cx="174.44" cy="76.26" rx="4.22" ry="10.96"/></svg>