<?xml version="1.0" encoding="utf-8"?>
<!-- Generator: Adobe Illustrator 22.1.0, SVG Export Plug-In . SVG Version: 6.00 Build 0)  -->
<svg version="1.1" id="Icon_Set" xmlns="http://www.w3.org/2000/svg" xmlns:xlink="http://www.w3.org/1999/xlink" x="0px" y="0px"
	 viewBox="0 0 512 512" style="enable-background:new 0 0 512 512;" xml:space="preserve">
<style type="text/css">
	.st0{fill:#F0C48A;}
	.st1{fill:#FD919E;}
	.st2{fill:#4C4372;}
	.st3{fill:#D3E6F8;}
	.st4{fill:#A4CFF2;}
	.st5{fill:#7BABF1;}
	.st6{fill:#FFFFFF;}
	.st7{fill:#E8677D;}
	.st8{fill:none;stroke:#4C4372;stroke-width:12;stroke-linecap:round;stroke-linejoin:round;stroke-miterlimit:10;}
</style>
<g id="Microscope">
	<g>
		<g>
			<circle class="st0" cx="256" cy="256" r="207"/>
		</g>
	</g>
	<g>
		<g>
			<g>
				<path class="st3" d="M162.886,265.124c0,53.755,43.733,97.488,97.488,97.488c5.962,0,10.795-4.833,10.795-10.795
					c0-5.962-4.833-10.795-10.795-10.795c-41.85,0-75.898-34.048-75.898-75.898H162.886z"/>
			</g>
		</g>
		<g>
			<g>
				<path class="st2" d="M260.374,368.612c-57.063,0-103.488-46.424-103.488-103.488c0-3.314,2.687-6,6-6h21.59c3.313,0,6,2.686,6,6
					c0,38.542,31.356,69.898,69.897,69.898c9.261,0,16.795,7.534,16.795,16.795S269.635,368.612,260.374,368.612z M169.08,271.124
					c3.102,47.659,42.864,85.488,91.293,85.488c2.644,0,4.795-2.151,4.795-4.795s-2.151-4.795-4.795-4.795
					c-43.141,0-78.598-33.529-81.68-75.898H169.08z"/>
			</g>
		</g>
		<g>
			<g>
				<path class="st3" d="M261.645,362.612c-5.962,0-10.795-4.833-10.795-10.795c0-5.962,4.833-10.795,10.795-10.795
					c41.85,0,75.898-34.048,75.898-75.898c0-30.574-18.197-58.027-46.359-69.938c-5.491-2.323-8.059-8.657-5.737-14.148
					c2.323-5.491,8.659-8.059,14.147-5.737c36.168,15.298,59.538,50.555,59.538,89.823
					C359.133,318.879,315.4,362.612,261.645,362.612z"/>
			</g>
		</g>
		<g>
			<g>
				<path class="st2" d="M261.646,368.612c-9.261,0-16.795-7.534-16.795-16.795s7.534-16.795,16.795-16.795
					c38.542,0,69.897-31.356,69.897-69.898c0-28.159-16.759-53.442-42.696-64.412c-8.529-3.608-12.533-13.482-8.925-22.011
					c1.748-4.132,5-7.336,9.158-9.022c4.158-1.686,8.722-1.651,12.853,0.096c38.393,16.239,63.201,53.665,63.201,95.348
					C365.133,322.187,318.709,368.612,261.646,368.612z M295.391,180.446c-0.61,0-1.22,0.118-1.803,0.354
					c-1.187,0.481-2.116,1.396-2.615,2.576c-1.03,2.435,0.113,5.254,2.548,6.284c30.387,12.852,50.021,42.473,50.021,75.464
					c0,45.159-36.739,81.898-81.897,81.898c-2.644,0-4.795,2.151-4.795,4.795s2.151,4.795,4.795,4.795
					c50.447,0,91.488-41.041,91.488-91.488c0-36.852-21.933-69.94-55.876-84.297C296.657,180.573,296.024,180.446,295.391,180.446z"
					/>
			</g>
		</g>
		<g>
			<path class="st4" d="M203.251,287.579h-56.597c-6.435,0-11.652-5.217-11.652-11.652l0,0c0-6.435,5.217-11.652,11.652-11.652
				h56.597c6.435,0,11.652,5.217,11.652,11.652l0,0C214.903,282.362,209.686,287.579,203.251,287.579z"/>
		</g>
		<g>
			<path class="st5" d="M360.455,415.693H161.829c-9.137,0-16.544-7.407-16.544-16.544v0c0-9.137,7.407-16.544,16.544-16.544
				h198.626c9.137,0,16.544,7.407,16.544,16.544v0C376.999,408.286,369.592,415.693,360.455,415.693z"/>
		</g>
		<g>
			<path class="st2" d="M360.455,421.693H161.829c-12.431,0-22.544-10.113-22.544-22.544c0-12.431,10.113-22.544,22.544-22.544
				h198.626c12.431,0,22.544,10.113,22.544,22.544C382.999,411.579,372.886,421.693,360.455,421.693z M161.829,388.604
				c-5.814,0-10.544,4.73-10.544,10.544c0,5.814,4.73,10.544,10.544,10.544h198.626c5.814,0,10.544-4.73,10.544-10.544
				c0-5.814-4.73-10.544-10.544-10.544H161.829z"/>
		</g>
		<g>
			<path class="st2" d="M203.251,293.579h-56.598c-9.733,0-17.652-7.919-17.652-17.652c0-9.734,7.919-17.652,17.652-17.652h56.598
				c9.733,0,17.652,7.919,17.652,17.652C220.903,285.66,212.984,293.579,203.251,293.579z M146.653,270.274
				c-3.117,0-5.652,2.536-5.652,5.652c0,3.117,2.536,5.652,5.652,5.652h56.598c3.117,0,5.652-2.536,5.652-5.652
				c0-3.117-2.536-5.652-5.652-5.652H146.653z"/>
		</g>
		<g>
			<g>
				
					<rect x="299.09" y="113.924" transform="matrix(0.5251 0.851 -0.851 0.5251 274.8494 -199.4562)" class="st5" width="34.099" height="65.232"/>
			</g>
			<g>
				<path class="st4" d="M373.017,133.099l-19.352-31.365c-3.313-5.369-10.351-7.036-15.72-3.723l0,0
					c-5.369,3.313-7.036,10.351-3.723,15.72l19.352,31.365c3.313,5.369,10.351,7.036,15.72,3.723h0
					C374.663,145.507,376.33,138.469,373.017,133.099z"/>
			</g>
			<g>
				<path class="st2" d="M297.334,184.176c-0.462,0-0.926-0.053-1.383-0.161c-1.548-0.367-2.888-1.334-3.724-2.688l-17.905-29.019
					c-1.74-2.82-0.864-6.517,1.956-8.257l55.516-34.253c1.355-0.836,2.987-1.099,4.533-0.732c1.548,0.367,2.888,1.334,3.724,2.688
					l17.905,29.019c1.74,2.82,0.864,6.517-1.956,8.257l-55.516,34.253C299.53,183.871,298.438,184.176,297.334,184.176z
					 M287.686,151.112l11.604,18.807l45.303-27.952l-11.604-18.807L287.686,151.112z"/>
			</g>
			<g>
				<path class="st2" d="M363.324,156.517c-5.848,0-11.566-2.938-14.857-8.27l-19.352-31.365c-2.444-3.96-3.199-8.636-2.126-13.165
					c1.073-4.529,3.845-8.369,7.806-10.812c8.175-5.045,18.931-2.497,23.977,5.679l19.353,31.366
					c2.444,3.96,3.199,8.636,2.126,13.165c-1.073,4.529-3.845,8.369-7.806,10.812C369.6,155.68,366.443,156.517,363.324,156.517z
					 M343.934,102.31c-0.971,0-1.953,0.26-2.839,0.807c-1.232,0.761-2.095,1.956-2.429,3.365c-0.334,1.41-0.099,2.865,0.662,4.098
					l19.353,31.366c1.57,2.545,4.917,3.338,7.463,1.768c1.232-0.761,2.095-1.956,2.429-3.365c0.334-1.41,0.099-2.865-0.662-4.098
					c0,0,0,0,0,0l-19.352-31.365C347.534,103.225,345.754,102.31,343.934,102.31z"/>
			</g>
			<g>
				<path class="st4" d="M211.092,227.028l-14.495-23.493c-4.654-7.543-2.312-17.431,5.231-22.085l101.192-61.892l31.349,50.809
					l-101.192,61.892C225.634,236.913,215.746,234.571,211.092,227.028z"/>
			</g>
			<g>
				<path class="st2" d="M224.791,240.648c-7.399,0-14.64-3.718-18.805-10.469c0,0,0,0,0,0l-14.495-23.493
					c-6.383-10.347-3.159-23.958,7.188-30.342L299.89,114.44c2.821-1.725,6.502-0.844,8.237,1.968l31.349,50.809
					c0.837,1.358,1.1,2.993,0.729,4.545c-0.371,1.552-1.344,2.892-2.706,3.724l-101.192,61.892
					C232.719,239.592,228.731,240.648,224.791,240.648z M216.198,223.877c2.91,4.715,9.112,6.185,13.829,3.276l96.074-58.761
					l-25.047-40.596l-96.094,58.773c-4.695,2.897-6.165,9.1-3.255,13.816L216.198,223.877L216.198,223.877z"/>
			</g>
			<g>
				<path class="st2" d="M243.72,231.759c-2.013,0-3.978-1.012-5.112-2.85l-31.349-50.809c-1.74-2.82-0.864-6.517,1.956-8.257
					c2.821-1.74,6.518-0.864,8.257,1.956l31.349,50.809c1.74,2.82,0.864,6.517-1.956,8.257
					C245.883,231.47,244.794,231.759,243.72,231.759z"/>
			</g>
			<g>
				<g>
					<circle class="st1" cx="299.675" cy="188.115" r="26.779"/>
				</g>
				<g>
					<path class="st2" d="M299.675,220.894c-18.075,0-32.779-14.705-32.779-32.779c0-18.075,14.705-32.779,32.779-32.779
						s32.779,14.705,32.779,32.779C332.455,206.189,317.75,220.894,299.675,220.894z M299.675,167.335
						c-11.458,0-20.779,9.322-20.779,20.779c0,11.458,9.322,20.779,20.779,20.779s20.779-9.322,20.779-20.779
						C320.455,176.657,311.133,167.335,299.675,167.335z"/>
				</g>
				<g>
					<circle class="st2" cx="299.675" cy="188.115" r="9.939"/>
				</g>
			</g>
		</g>
		<g>
			<g>
				<path class="st1" d="M261.142,320.812L261.142,320.812c-13.168,0-24.683,8.871-28.043,21.603l-10.606,40.19h77.298
					l-10.606-40.19C285.825,329.682,274.31,320.812,261.142,320.812z"/>
			</g>
			<g>
				<path class="st2" d="M299.791,388.604h-77.298c-1.861,0-3.617-0.864-4.753-2.339c-1.136-1.474-1.523-3.393-1.048-5.193
					l10.606-40.19c4.051-15.35,17.968-26.071,33.844-26.071s29.793,10.721,33.844,26.071l10.606,40.19
					c0.475,1.8,0.088,3.718-1.048,5.193C303.408,387.74,301.652,388.604,299.791,388.604z M230.282,376.604h61.72l-8.619-32.659
					c-2.662-10.088-11.808-17.133-22.242-17.133c-10.433,0-19.579,7.046-22.241,17.133L230.282,376.604z"/>
			</g>
			<g>
				<circle class="st5" cx="261.142" cy="351.708" r="12.902"/>
			</g>
			<g>
				<path class="st2" d="M261.142,370.61c-10.422,0-18.902-8.479-18.902-18.902s8.479-18.902,18.902-18.902
					c10.423,0,18.902,8.479,18.902,18.902S271.564,370.61,261.142,370.61z M261.142,344.806c-3.806,0-6.902,3.096-6.902,6.902
					s3.096,6.902,6.902,6.902c3.806,0,6.902-3.096,6.902-6.902S264.948,344.806,261.142,344.806z"/>
			</g>
		</g>
	</g>
</g>
</svg>
