<?xml version="1.0" encoding="utf-8"?>
<!-- Generator: Adobe Illustrator 22.1.0, SVG Export Plug-In . SVG Version: 6.00 Build 0)  -->
<svg version="1.1" id="Icon_Set" xmlns="http://www.w3.org/2000/svg" xmlns:xlink="http://www.w3.org/1999/xlink" x="0px" y="0px"
	 viewBox="0 0 512 512" style="enable-background:new 0 0 512 512;" xml:space="preserve">
<style type="text/css">
	.st0{fill:#F0C48A;}
	.st1{fill:#FD919E;}
	.st2{fill:#4C4372;}
	.st3{fill:#D3E6F8;}
	.st4{fill:#A4CFF2;}
	.st5{fill:#7BABF1;}
	.st6{fill:#FFFFFF;}
	.st7{fill:#E8677D;}
	.st8{fill:none;stroke:#4C4372;stroke-width:12;stroke-linecap:round;stroke-linejoin:round;stroke-miterlimit:10;}
</style>
<g id="Pancreas">
	<g>
		<g>
			<circle class="st0" cx="256" cy="256" r="207"/>
		</g>
	</g>
	<g>
		<g>
			<g>
				<path class="st1" d="M328.945,277.403c6.055-25.718,21.836-46.089,43.948-58.472c4.821-2.7,9.355-6.114,13.447-10.242
					c23.219-23.428,23.359-60.937,0.312-83.779s-60.554-22.365-83.772,1.062c-4.091,4.128-7.465,8.693-10.121,13.538
					c-12.184,22.223-32.414,38.185-58.077,44.47c-27.643,6.77-55.497,21.969-75.136,41.785
					c-41.434,41.807-30.601,88.315,4.825,123.425c35.426,35.11,82.029,45.527,123.463,3.72
					C307.473,333.094,322.423,305.105,328.945,277.403z"/>
			</g>
			<g>
				<path class="st7" d="M386.652,124.91c-14.485-14.357-34.682-19.495-53.454-15.52c10.554,2.244,20.576,7.4,28.767,15.52
					c23.047,22.841,22.907,60.35-0.312,83.778c-4.091,4.128-8.626,7.542-13.447,10.241c-22.112,12.384-37.893,32.755-43.948,58.473
					c-6.522,27.702-21.472,55.692-41.111,75.507c-14.89,15.024-30.448,23.303-45.914,26.117
					c23.276,4.121,47.726-3.036,70.601-26.117c19.639-19.815,34.589-47.805,41.111-75.507c6.055-25.718,21.835-46.089,43.948-58.473
					c4.821-2.699,9.355-6.113,13.447-10.241C409.558,185.26,409.699,147.751,386.652,124.91z"/>
			</g>
			<g>
				<path class="st2" d="M229.534,386.13c-2.056,0-4.116-0.085-6.182-0.257c-21.774-1.811-43.631-13.021-63.206-32.422
					s-30.981-41.154-32.985-62.912c-2.241-24.314,7.484-48.174,28.123-68.998c20.206-20.388,48.625-36.203,77.971-43.39
					c23.443-5.741,42.707-20.489,54.242-41.527c2.978-5.43,6.719-10.435,11.12-14.876c25.511-25.74,66.896-26.233,92.258-1.101
					c25.36,25.135,25.237,66.524-0.273,92.265c-4.402,4.441-9.374,8.228-14.777,11.254c-20.933,11.722-35.507,31.117-41.038,54.611
					c0,0,0,0-0.001,0c-6.924,29.408-22.483,57.968-42.689,78.355C273.209,376.189,251.698,386.13,229.534,386.13z M345.587,114.109
					c-13.875,0-27.833,5.377-38.446,16.086c-3.613,3.646-6.683,7.751-9.122,12.198c-13.172,24.023-35.158,40.862-61.909,47.414
					c-26.855,6.576-53.885,21.598-72.302,40.181c-18.319,18.484-26.629,38.486-24.697,59.45
					c1.742,18.912,11.938,38.101,29.483,55.489c17.546,17.39,36.825,27.413,55.752,28.986c20.991,1.736,40.907-6.746,59.227-25.229
					c18.418-18.583,33.196-45.745,39.533-72.658c6.312-26.81,22.951-48.945,46.855-62.332c4.426-2.479,8.503-5.584,12.117-9.23
					c20.854-21.041,21.01-54.817,0.35-75.294C372.283,119.116,358.974,114.109,345.587,114.109z M328.945,277.402h0.01H328.945z"/>
			</g>
			<g>
				<path class="st2" d="M164.367,355.189c-1.396,0-2.797-0.484-3.934-1.472c-2.501-2.174-2.766-5.964-0.592-8.465
					c0.321-0.37,32.64-37.485,72.541-77.755c53.896-54.394,95.312-88.392,123.101-101.05c3.021-1.372,6.575-0.041,7.947,2.973
					c1.374,3.016,0.043,6.574-2.973,7.947c-63.481,28.918-190.286,174.292-191.56,175.758
					C167.712,354.49,166.044,355.189,164.367,355.189z"/>
			</g>
			<g>
				<path class="st2" d="M278.102,274.955c-0.597,0-1.202-0.09-1.801-0.278l-29.413-9.244c-1.944-0.61-3.446-2.167-3.986-4.133
					l-7.651-27.821c-0.879-3.195,0.999-6.497,4.194-7.376c3.188-0.882,6.496,0.998,7.376,4.194l6.784,24.669l26.294,8.264
					c3.161,0.993,4.919,4.361,3.925,7.522C283.019,273.314,280.652,274.955,278.102,274.955z"/>
			</g>
			<g>
				<path class="st2" d="M318.519,236.485c-0.207,0.001-0.415-0.01-0.626-0.032l-34.067-3.535c-3.128-0.324-5.474-3.008-5.378-6.151
					l0.955-31.268c0.1-3.249,2.765-5.816,5.994-5.816c0.062,0,0.124,0.001,0.187,0.003c3.312,0.101,5.915,2.868,5.813,6.181
					l-0.784,25.691l28.519,2.96c3.296,0.342,5.69,3.291,5.349,6.587C324.159,234.19,321.555,236.485,318.519,236.485z"/>
			</g>
			<g>
				<path class="st2" d="M352.165,209.356c-0.955,0-1.925-0.229-2.825-0.711l-23.723-12.691c-1.814-0.971-3.005-2.804-3.154-4.856
					l-1.726-23.789c-0.239-3.305,2.245-6.178,5.55-6.418c3.342-0.225,6.179,2.245,6.419,5.55l1.486,20.492L355,198.065
					c2.922,1.562,4.023,5.198,2.46,8.12C356.379,208.206,354.307,209.356,352.165,209.356z"/>
			</g>
		</g>
		<g>
			<path class="st5" d="M388.967,367.903c-2.143-6.971-9.536-10.888-16.508-8.745l-29.511,9.072l-4.151-15.919
				c-1.193-4.582-4.75-8.173-9.32-9.415c-4.57-1.241-9.455,0.06-12.803,3.408c-41.605,41.605-109.302,41.606-150.908,0.001
				s-41.605-109.302,0.001-150.908c0.108-0.108,0.2-0.225,0.303-0.335c0.108-0.116,0.223-0.221,0.328-0.341
				c0.168-0.194,17.529-19.477,41.387-22.128c7.251-0.806,12.476-7.337,11.67-14.588c-0.806-7.251-7.337-12.477-14.588-11.67
				c-21.17,2.353-38.036,13.155-48.107,21.373l-23.78-23.78c-5.159-5.159-13.523-5.159-18.682,0c-5.159,5.159-5.159,13.523,0,18.682
				l23.906,23.906c-42.833,52.242-39.874,129.717,8.88,178.471c46.609,46.609,119.469,51.364,171.435,14.267l2.344,8.991
				c0.909,3.488,3.204,6.452,6.348,8.203c3.146,1.755,6.873,2.148,10.316,1.09l42.695-13.125
				C387.195,382.268,391.111,374.877,388.967,367.903z"/>
		</g>
		<g>
			<path class="st2" d="M241.186,409.914c-3.614,0-7.234-0.14-10.859-0.423c-33.023-2.571-64.094-16.87-87.485-40.263
				c-24.534-24.533-38.931-57.168-40.536-91.893c-1.511-32.659,8.364-64.526,27.889-90.345l-20.139-20.138
				c-3.629-3.629-5.627-8.453-5.627-13.584c0-5.132,1.998-9.956,5.627-13.584c3.627-3.628,8.451-5.626,13.583-5.626
				s9.956,1.998,13.584,5.627l20.033,20.034c11.091-8.226,27.241-17.159,46.947-19.349c5.099-0.57,10.114,0.885,14.122,4.091
				c4.007,3.206,6.525,7.779,7.092,12.879c1.17,10.528-6.443,20.045-16.972,21.214c-21.376,2.376-37.402,19.973-37.562,20.15
				c-0.111,0.128-0.27,0.293-0.431,0.454c-0.13,0.15-0.281,0.317-0.444,0.479c-39.266,39.267-39.266,103.157-0.001,142.423
				c39.266,39.266,103.156,39.266,142.424,0c4.856-4.858,11.989-6.754,18.618-4.956c6.63,1.802,11.823,7.049,13.554,13.692
				l2.569,9.855l23.523-7.231c10.123-3.109,20.894,2.593,24.007,12.717v0.001c3.111,10.124-2.594,20.893-12.718,24.007
				l-42.695,13.125c-4.981,1.533-10.45,0.954-15.002-1.585c-4.551-2.536-7.916-6.885-9.23-11.93l-0.219-0.838
				C292.827,402.632,267.249,409.913,241.186,409.914z M123.638,146.06c-1.926,0-3.736,0.75-5.098,2.111
				c-1.362,1.362-2.112,3.173-2.112,5.099s0.75,3.736,2.111,5.099l23.906,23.904c2.182,2.182,2.354,5.662,0.397,8.047
				c-19.869,24.235-30.009,54.941-28.551,86.463c1.467,31.729,14.619,61.547,37.033,83.962
				c21.372,21.371,49.759,34.435,79.933,36.784c29.842,2.319,59.599-5.9,83.774-23.159c1.605-1.146,3.674-1.431,5.532-0.757
				c1.855,0.673,3.262,2.217,3.76,4.127l2.344,8.991c0.494,1.894,1.756,3.524,3.463,4.476c1.71,0.955,3.762,1.173,5.633,0.596
				l42.694-13.125c3.8-1.168,5.941-5.211,4.773-9.01s-5.211-5.938-9.011-4.773l-29.511,9.072c-1.562,0.48-3.257,0.302-4.685-0.495
				c-1.43-0.797-2.471-2.143-2.884-3.727l-4.151-15.919c-0.649-2.494-2.6-4.462-5.088-5.139c-2.489-0.677-5.163,0.037-6.986,1.86
				c-43.945,43.945-115.45,43.945-159.394,0c-43.918-43.917-43.948-115.356-0.083-159.308c0.094-0.107,0.172-0.194,0.252-0.28
				c0.07-0.077,0.173-0.181,0.275-0.284c-0.013,0.014-0.054,0.059-0.094,0.105c0.326-0.373,19.023-21.236,45.246-24.15
				c3.952-0.439,6.81-4.012,6.371-7.962c-0.213-1.915-1.158-3.632-2.662-4.835c-1.506-1.203-3.387-1.752-5.3-1.535
				c-19.514,2.169-35.229,12.105-44.978,20.059c-2.384,1.946-5.857,1.772-8.035-0.406l-23.779-23.779
				C127.374,146.81,125.563,146.06,123.638,146.06z"/>
		</g>
		<g>
			<path class="st2" d="M261.374,298.6c-0.465,0-0.938-0.054-1.409-0.168l-34.009-8.188c-2.213-0.532-3.935-2.271-4.443-4.49
				l-7.694-33.515c-0.741-3.229,1.275-6.449,4.505-7.19c3.234-0.745,6.449,1.275,7.19,4.505l6.863,29.894l30.396,7.319
				c3.222,0.775,5.205,4.016,4.429,7.237C266.54,296.753,264.083,298.6,261.374,298.6z"/>
		</g>
	</g>
</g>
</svg>
