<?xml version="1.0" encoding="utf-8"?>
<!-- Generator: Adobe Illustrator 22.1.0, SVG Export Plug-In . SVG Version: 6.00 Build 0)  -->
<svg version="1.1" id="Icon_Set" xmlns="http://www.w3.org/2000/svg" xmlns:xlink="http://www.w3.org/1999/xlink" x="0px" y="0px"
	 viewBox="0 0 512 512" style="enable-background:new 0 0 512 512;" xml:space="preserve">
<style type="text/css">
	.st0{fill:#F0C48A;}
	.st1{fill:#FD919E;}
	.st2{fill:#4C4372;}
	.st3{fill:#D3E6F8;}
	.st4{fill:#A4CFF2;}
	.st5{fill:#7BABF1;}
	.st6{fill:#FFFFFF;}
	.st7{fill:#E8677D;}
	.st8{fill:none;stroke:#4C4372;stroke-width:12;stroke-linecap:round;stroke-linejoin:round;stroke-miterlimit:10;}
</style>
<g id="Male_Reproductive">
	<g>
		<g>
			<circle class="st0" cx="256" cy="256" r="207"/>
		</g>
	</g>
	<g>
		<g>
			<g>
				<path class="st7" d="M152.482,329.875c-3.244,0-6.458-1.413-8.653-4.133c-1.252-1.551-30.861-38.481-47.934-80.062
					c-11.803-28.747-7.192-60.424,12.336-84.735c19.193-23.895,48.553-35.043,78.533-29.833
					c15.133,2.632,47.857,25.275,56.506,33.704c4.396,4.283,4.486,11.319,0.204,15.714c-4.284,4.395-11.32,4.485-15.715,0.203
					c-8.574-8.355-36.798-26.331-44.804-27.724c-21.89-3.807-43.347,4.363-57.397,21.854c-14.384,17.908-17.787,41.226-9.103,62.375
					c15.814,38.515,44.386,74.195,44.673,74.551c3.85,4.778,3.1,11.773-1.677,15.625
					C157.397,329.07,154.931,329.875,152.482,329.875z"/>
			</g>
		</g>
		<g>
			<g>
				<path class="st7" d="M359.518,329.875c3.244,0,6.458-1.413,8.653-4.133c1.252-1.551,30.861-38.481,47.934-80.062
					c11.803-28.747,7.192-60.424-12.336-84.735c-19.193-23.895-48.553-35.043-78.533-29.833
					c-15.133,2.632-47.857,25.275-56.506,33.704c-4.396,4.283-4.486,11.319-0.204,15.714c4.284,4.395,11.32,4.485,15.715,0.203
					c8.574-8.355,36.798-26.331,44.804-27.724c21.89-3.807,43.347,4.363,57.397,21.854c14.384,17.908,17.787,41.226,9.103,62.375
					c-15.814,38.515-44.386,74.195-44.673,74.551c-3.85,4.778-3.1,11.773,1.677,15.625
					C354.603,329.07,357.069,329.875,359.518,329.875z"/>
			</g>
		</g>
		<g>
			<g>
				<path class="st2" d="M152.482,335.875c-5.203,0-10.059-2.32-13.323-6.365c-1.275-1.58-31.417-39.18-48.815-81.551
					c-12.645-30.799-7.707-64.732,13.209-90.772c20.577-25.617,52.065-37.578,84.238-31.986
					c17.151,2.983,50.683,26.562,59.667,35.318c3.273,3.188,5.109,7.463,5.168,12.034c0.059,4.57-1.665,8.89-4.855,12.164
					c-6.586,6.757-17.441,6.896-24.199,0.313c-7.504-7.312-34.917-24.94-41.645-26.11c-19.707-3.43-39.03,3.938-51.69,19.7
					c-12.996,16.18-16.072,37.24-8.231,56.338c15.444,37.617,43.512,72.714,43.793,73.063c5.92,7.349,4.761,18.142-2.582,24.062
					C160.184,334.529,156.372,335.875,152.482,335.875z M172.305,135.855c-22.946,0-44.479,10.274-59.396,28.847
					c-18.139,22.582-22.424,52.002-11.464,78.698c16.742,40.773,45.824,77.05,47.054,78.574c0.974,1.208,2.426,1.9,3.983,1.9
					c0.82,0,2.042-0.196,3.204-1.134c2.193-1.768,2.539-4.993,0.77-7.188c-0.287-0.355-29.338-36.549-45.551-76.036
					c-9.526-23.2-5.796-48.774,9.976-68.411c15.438-19.22,39.026-28.197,63.102-24.008c9.781,1.701,39.294,20.891,47.963,29.338
					c2.02,1.967,5.263,1.925,7.231-0.095c0.952-0.977,1.467-2.268,1.45-3.634c-0.018-1.365-0.566-2.642-1.543-3.594
					c-8.901-8.675-40.509-29.857-53.348-32.091C181.232,136.24,176.74,135.855,172.305,135.855z"/>
			</g>
		</g>
		<g>
			<g>
				<path class="st2" d="M359.518,335.875c-3.89,0-7.702-1.347-10.734-3.791c-7.343-5.92-8.502-16.713-2.585-24.06
					c0.284-0.353,28.351-35.449,43.796-73.066c7.842-19.098,4.765-40.158-8.23-56.339c-12.661-15.762-31.988-23.125-51.69-19.699
					c-5.755,1.001-32.873,17.562-41.646,26.109c-6.757,6.584-17.612,6.446-24.198-0.312c-3.19-3.273-4.915-7.594-4.855-12.164
					c0.059-4.571,1.895-8.846,5.169-12.035c8.982-8.754,42.513-32.333,59.664-35.317c32.169-5.589,63.662,6.367,84.239,31.986
					c20.917,26.04,25.854,59.974,13.209,90.772c-17.396,42.37-47.54,79.971-48.814,81.551
					C369.576,333.555,364.721,335.875,359.518,335.875z M339.643,146.087c19.876,0,38.538,8.911,51.477,25.018
					c15.772,19.638,19.502,45.212,9.977,68.412c-16.214,39.487-45.266,75.681-45.557,76.041c-1.764,2.19-1.418,5.416,0.775,7.185
					c1.162,0.937,2.383,1.133,3.203,1.133c1.558,0,3.009-0.692,3.983-1.9c1.23-1.524,30.313-37.802,47.053-78.574
					c10.962-26.696,6.677-56.116-11.463-78.698c-17.801-22.163-45.032-32.512-72.828-27.68
					c-12.839,2.234-44.446,23.416-53.346,32.09c-0.979,0.953-1.527,2.229-1.545,3.595c-0.018,1.366,0.498,2.656,1.451,3.635
					c1.969,2.019,5.212,2.061,7.229,0.094c8.67-8.447,38.184-27.637,47.964-29.338C331.915,146.42,335.803,146.087,339.643,146.087z
					"/>
			</g>
		</g>
		<g>
			<circle class="st3" cx="152.477" cy="318.763" r="29.113"/>
		</g>
		<g>
			<circle class="st4" cx="359.523" cy="318.763" r="29.113"/>
		</g>
		<g>
			<path class="st2" d="M152.478,353.876c-19.361,0-35.113-15.752-35.113-35.113s15.752-35.112,35.113-35.112
				s35.113,15.751,35.113,35.112S171.839,353.876,152.478,353.876z M152.478,295.65c-12.745,0-23.113,10.368-23.113,23.112
				c0,12.745,10.369,23.113,23.113,23.113s23.113-10.368,23.113-23.113C175.59,306.019,165.222,295.65,152.478,295.65z"/>
		</g>
		<g>
			<path class="st2" d="M359.522,353.876c-19.361,0-35.112-15.752-35.112-35.113s15.751-35.112,35.112-35.112
				s35.113,15.751,35.113,35.112S378.884,353.876,359.522,353.876z M359.522,295.65c-12.744,0-23.112,10.368-23.112,23.112
				c0,12.745,10.368,23.113,23.112,23.113c12.745,0,23.113-10.368,23.113-23.113C382.636,306.019,372.268,295.65,359.522,295.65z"/>
		</g>
		<g>
			<path class="st1" d="M348.279,221.737c0-37.507-41.315-67.913-92.279-67.913s-92.279,30.406-92.279,67.913
				c0,27.492,22.197,51.168,54.121,61.853c5.046,1.689,8.479,6.371,8.479,11.693v97.187c0,16.391,13.288,29.679,29.679,29.679l0,0
				c16.391,0,29.679-13.288,29.679-29.679v-97.187c0-5.321,3.433-10.004,8.479-11.693
				C326.082,272.905,348.279,249.229,348.279,221.737z"/>
		</g>
		<g>
			<g>
				<path class="st7" d="M196.399,273.577c2.889,1.801,5.933,3.471,9.111,5.003c-1.437-1.683-3.333-2.993-5.537-3.73
					C198.766,274.446,197.578,274.018,196.399,273.577z"/>
			</g>
			<g>
				<path class="st7" d="M297.72,161.148c19.993,12.457,32.69,31.061,32.69,51.85c0,27.493-22.197,51.168-54.121,61.853
					c-5.046,1.689-8.479,6.371-8.479,11.693v97.186c0,16.391-13.288,29.679-29.679,29.679c-1.132,0-2.246-0.069-3.345-0.193
					c5.388,5.509,12.899,8.932,21.214,8.932c16.391,0,29.679-13.288,29.679-29.679v-97.187c0-5.321,3.433-10.003,8.479-11.692
					c31.924-10.685,54.121-34.36,54.121-61.853C348.279,195.28,327.72,172.358,297.72,161.148z"/>
			</g>
		</g>
		<g>
			<path class="st2" d="M256,428.147c-19.673,0-35.679-16.006-35.679-35.679v-97.187c0-2.713-1.762-5.125-4.383-6.003
				c-35.366-11.836-58.217-38.348-58.217-67.542c0-20.097,10.466-38.867,29.472-52.854c18.452-13.58,42.888-21.059,68.807-21.059
				s50.354,7.479,68.807,21.059c19.005,13.987,29.472,32.758,29.472,52.854c0,29.194-22.851,55.706-58.216,67.542
				c-2.622,0.878-4.384,3.29-4.384,6.003v97.187C291.679,412.142,275.673,428.147,256,428.147z M256,159.824
				c-47.574,0-86.279,27.774-86.279,61.913c0,23.946,19.636,45.992,50.025,56.163c7.521,2.517,12.575,9.502,12.575,17.382v97.187
				c0,13.057,10.622,23.679,23.679,23.679s23.679-10.622,23.679-23.679v-97.187c0-7.88,5.054-14.865,12.575-17.382
				c30.389-10.171,50.024-32.217,50.024-56.163C342.278,187.599,303.574,159.824,256,159.824z"/>
		</g>
		<g>
			<path class="st2" d="M285.679,381.779h-59.357c-3.313,0-6-2.687-6-6s2.687-6,6-6h59.357c3.313,0,6,2.687,6,6
				S288.992,381.779,285.679,381.779z"/>
		</g>
	</g>
</g>
</svg>
