<?xml version="1.0" encoding="utf-8"?>
<!-- Generator: Adobe Illustrator 22.1.0, SVG Export Plug-In . SVG Version: 6.00 Build 0)  -->
<svg version="1.1" id="Icon_Set" xmlns="http://www.w3.org/2000/svg" xmlns:xlink="http://www.w3.org/1999/xlink" x="0px" y="0px"
	 viewBox="0 0 512 512" style="enable-background:new 0 0 512 512;" xml:space="preserve">
<style type="text/css">
	.st0{fill:#F0C48A;}
	.st1{fill:#FD919E;}
	.st2{fill:#4C4372;}
	.st3{fill:#D3E6F8;}
	.st4{fill:#A4CFF2;}
	.st5{fill:#7BABF1;}
	.st6{fill:#FFFFFF;}
	.st7{fill:#E8677D;}
	.st8{fill:none;stroke:#4C4372;stroke-width:12;stroke-linecap:round;stroke-linejoin:round;stroke-miterlimit:10;}
</style>
<g id="Ribs">
	<g>
		<g>
			<circle class="st0" cx="256" cy="256" r="207"/>
		</g>
	</g>
	<g>
		<g>
			
				<rect x="229.75" y="104.517" transform="matrix(1 -0.0051 0.0051 1 -1.2644 1.3105)" class="st6" width="52.5" height="287.457"/>
		</g>
		<g>
			
				<rect x="262.56" y="104.433" transform="matrix(1 -0.0051 0.0051 1 -1.2637 1.3943)" class="st3" width="19.69" height="287.457"/>
		</g>
		<g>
			<path class="st2" d="M230.484,398.106c-1.581,0-3.097-0.623-4.221-1.735c-1.131-1.12-1.771-2.643-1.779-4.234l-1.468-287.453
				c-0.017-3.313,2.656-6.014,5.969-6.03l52.5-0.269c0.01,0,0.021,0,0.03,0c1.58,0,3.098,0.623,4.221,1.735
				c1.131,1.12,1.771,2.643,1.779,4.234l1.468,287.453c0.017,3.313-2.655,6.014-5.97,6.03l-52.499,0.269
				C230.504,398.106,230.494,398.106,230.484,398.106z M235.047,110.622l1.406,275.454l40.5-0.207l-1.407-275.454L235.047,110.622z"
				/>
		</g>
		<g>
			<g>
				<path class="st6" d="M179.046,233.69c-34.214,0.175-62.191-27.519-62.366-61.733c-0.034-6.722,5.387-12.2,12.11-12.235
					c6.722-0.034,12.2,5.388,12.235,12.11c0.106,20.791,17.107,37.619,37.897,37.513c20.79-0.106,37.618-17.107,37.512-37.898
					c-0.034-6.722,5.387-12.2,12.11-12.235c6.723-0.034,12.2,5.388,12.235,12.11C240.953,205.537,213.26,233.515,179.046,233.69z"/>
			</g>
		</g>
		<g>
			<path class="st3" d="M228.544,159.213c-6.723,0.034-12.145,5.512-12.11,12.234c0.084,16.405-10.38,30.444-25.011,35.69v25.245
				c28.272-5.899,49.509-31.085,49.356-61.06C240.744,164.601,235.267,159.179,228.544,159.213z"/>
		</g>
		<g>
			<g>
				<path class="st2" d="M179.121,239.356c-37.523,0-68.05-30.527-68.05-68.051c0-10.021,8.152-18.173,18.173-18.173
					s18.172,8.152,18.172,18.173c0,17.482,14.223,31.705,31.705,31.705c17.482,0,31.705-14.223,31.705-31.705
					c0-10.021,8.152-18.173,18.173-18.173s18.172,8.152,18.172,18.173C247.171,208.829,216.644,239.356,179.121,239.356z
					 M129.244,165.133c-3.404,0-6.173,2.77-6.173,6.173c0,30.906,25.144,56.051,56.05,56.051c30.906,0,56.05-25.145,56.05-56.051
					c0-3.403-2.769-6.173-6.172-6.173c-3.404,0-6.173,2.77-6.173,6.173c0,24.099-19.606,43.705-43.705,43.705
					c-24.099,0-43.705-19.606-43.705-43.705C135.417,167.902,132.647,165.133,129.244,165.133z"/>
			</g>
		</g>
		<g>
			<g>
				<path class="st6" d="M170.51,315.151c-39.15,0.2-71.164-31.488-71.364-70.639c-0.034-6.722,5.388-12.2,12.11-12.235
					c6.723-0.034,12.2,5.388,12.235,12.11c0.131,25.727,21.168,46.55,46.894,46.418s46.549-21.168,46.418-46.895
					c-0.034-6.722,5.387-12.2,12.11-12.235c6.722-0.034,12.2,5.388,12.235,12.11C241.349,282.937,209.66,314.951,170.51,315.151z"/>
			</g>
		</g>
		<g>
			<path class="st3" d="M228.914,231.677c-6.723,0.034-12.145,5.512-12.11,12.234c0.093,18.15-10.251,33.955-25.382,41.742v26.24
				c28.921-9.101,49.889-36.237,49.726-68.106C241.114,237.064,235.637,231.642,228.914,231.677z"/>
		</g>
		<g>
			<g>
				<path class="st2" d="M170.169,320.771c-42.459,0-77.001-34.543-77.001-77.002c0-10.021,8.152-18.173,18.172-18.173
					s18.172,8.152,18.172,18.173c0,22.419,18.239,40.657,40.657,40.657s40.657-18.238,40.657-40.657
					c0-10.021,8.152-18.173,18.173-18.173s18.172,8.152,18.172,18.173C247.171,286.229,212.628,320.771,170.169,320.771z
					 M111.34,237.597c-3.403,0-6.172,2.77-6.172,6.173c0,35.842,29.16,65.002,65.001,65.002c35.842,0,65.002-29.16,65.002-65.002
					c0-3.403-2.769-6.173-6.172-6.173c-3.404,0-6.173,2.77-6.173,6.173c0,29.035-23.622,52.657-52.657,52.657
					s-52.657-23.622-52.657-52.657C117.513,240.366,114.744,237.597,111.34,237.597z"/>
			</g>
		</g>
		<g>
			<g>
				<path class="st6" d="M164.791,399.672c-42.542,0.217-77.329-34.216-77.546-76.757c-0.034-6.722,5.387-12.2,12.11-12.235
					c6.723-0.034,12.2,5.388,12.235,12.11c0.149,29.118,23.959,52.686,53.077,52.537c29.118-0.149,52.686-23.958,52.537-53.076
					c-0.034-6.722,5.387-12.2,12.11-12.235s12.2,5.388,12.235,12.11C241.766,364.668,207.333,399.455,164.791,399.672z"/>
			</g>
		</g>
		<g>
			<path class="st3" d="M229.314,310.017c-6.723,0.034-12.145,5.512-12.11,12.234c0.099,19.342-10.274,36.332-25.782,45.61v26.924
				c29.39-11.026,50.296-39.482,50.126-72.659C241.514,315.404,236.037,309.982,229.314,310.017z"/>
		</g>
		<g>
			<g>
				<path class="st2" d="M164.019,405.263c-45.851,0-83.153-37.302-83.153-83.152c0-10.021,8.152-18.173,18.173-18.173
					s18.172,8.152,18.172,18.173c0,25.81,20.998,46.808,46.808,46.808s46.808-20.998,46.808-46.808
					c0-10.021,8.152-18.173,18.173-18.173s18.172,8.152,18.172,18.173C247.171,367.961,209.869,405.263,164.019,405.263z
					 M99.039,315.938c-3.404,0-6.173,2.77-6.173,6.173c0,39.233,31.919,71.152,71.153,71.152s71.153-31.919,71.153-71.152
					c0-3.403-2.769-6.173-6.172-6.173c-3.404,0-6.173,2.77-6.173,6.173c0,32.427-26.381,58.808-58.808,58.808
					s-58.808-26.381-58.808-58.808C105.211,318.707,102.442,315.938,99.039,315.938z"/>
			</g>
		</g>
		<g>
			<g>
				<path class="st6" d="M332.954,233.69c34.214,0.175,62.191-27.519,62.366-61.733c0.034-6.722-5.387-12.2-12.11-12.235
					c-6.722-0.034-12.2,5.388-12.235,12.11c-0.106,20.791-17.107,37.619-37.897,37.513c-20.79-0.106-37.618-17.107-37.512-37.898
					c0.034-6.722-5.387-12.2-12.11-12.235s-12.2,5.388-12.235,12.11C271.047,205.537,298.74,233.515,332.954,233.69z"/>
			</g>
		</g>
		<g>
			<path class="st3" d="M383.21,159.722c-6.723-0.034-12.2,5.388-12.235,12.111c-0.066,12.835-6.575,24.155-16.436,30.917v27.179
				c23.658-8.662,40.645-31.339,40.781-57.972C395.354,165.235,389.932,159.756,383.21,159.722z"/>
		</g>
		<g>
			<g>
				<path class="st2" d="M332.879,239.356c-37.523,0-68.051-30.527-68.051-68.051c0-10.021,8.152-18.173,18.173-18.173
					s18.173,8.152,18.173,18.173c0,17.482,14.223,31.705,31.705,31.705c17.481,0,31.704-14.223,31.704-31.705
					c0-10.021,8.152-18.173,18.173-18.173s18.173,8.152,18.173,18.173C400.929,208.829,370.401,239.356,332.879,239.356z
					 M283.001,165.133c-3.403,0-6.173,2.77-6.173,6.173c0,30.906,25.145,56.051,56.051,56.051s56.05-25.145,56.05-56.051
					c0-3.403-2.77-6.173-6.173-6.173s-6.173,2.77-6.173,6.173c0,24.099-19.605,43.705-43.704,43.705s-43.705-19.606-43.705-43.705
					C289.174,167.902,286.404,165.133,283.001,165.133z"/>
			</g>
		</g>
		<g>
			<g>
				<path class="st6" d="M341.49,315.151c39.15,0.2,71.164-31.488,71.364-70.639c0.034-6.722-5.388-12.2-12.11-12.235
					c-6.723-0.034-12.2,5.388-12.235,12.11c-0.131,25.727-21.168,46.55-46.894,46.418s-46.549-21.168-46.418-46.895
					c0.034-6.722-5.387-12.2-12.11-12.235c-6.722-0.034-12.2,5.388-12.235,12.11C270.651,282.937,302.34,314.951,341.49,315.151z"/>
			</g>
		</g>
		<g>
			<path class="st3" d="M400.743,232.277c-6.723-0.034-12.2,5.388-12.235,12.111c-0.109,21.246-14.479,39.134-33.969,44.652v24.957
				c32.97-5.976,58.137-34.79,58.314-69.484C412.888,237.789,407.465,232.312,400.743,232.277z"/>
		</g>
		<g>
			<g>
				<path class="st2" d="M341.83,320.771c-42.459,0-77.002-34.543-77.002-77.002c0-10.021,8.152-18.173,18.173-18.173
					s18.173,8.152,18.173,18.173c0,22.419,18.238,40.657,40.656,40.657c22.419,0,40.657-18.238,40.657-40.657
					c0-10.021,8.152-18.173,18.172-18.173c10.021,0,18.173,8.152,18.173,18.173C418.832,286.229,384.289,320.771,341.83,320.771z
					 M283.001,237.597c-3.403,0-6.173,2.77-6.173,6.173c0,35.842,29.16,65.002,65.002,65.002s65.002-29.16,65.002-65.002
					c0-3.403-2.77-6.173-6.173-6.173s-6.172,2.77-6.172,6.173c0,29.035-23.622,52.657-52.657,52.657s-52.656-23.622-52.656-52.657
					C289.174,240.366,286.404,237.597,283.001,237.597z"/>
			</g>
		</g>
		<g>
			<g>
				<path class="st6" d="M347.209,399.672c42.542,0.217,77.329-34.216,77.546-76.757c0.034-6.722-5.387-12.2-12.11-12.235
					s-12.2,5.388-12.235,12.11c-0.149,29.118-23.959,52.686-53.077,52.537c-29.118-0.149-52.686-23.958-52.537-53.076
					c0.034-6.722-5.387-12.2-12.11-12.235c-6.723-0.034-12.2,5.388-12.235,12.11C270.234,364.668,304.667,399.455,347.209,399.672z"
					/>
			</g>
		</g>
		<g>
			<path class="st3" d="M412.645,310.68c-6.723-0.034-12.2,5.388-12.235,12.111c-0.136,26.673-20.132,48.675-45.871,52.069v24.493
				c39.135-3.504,70.011-36.368,70.216-76.437C424.789,316.192,419.368,310.715,412.645,310.68z"/>
		</g>
		<g>
			<g>
				<path class="st2" d="M347.981,405.263c-45.851,0-83.153-37.302-83.153-83.152c0-10.021,8.152-18.173,18.173-18.173
					s18.173,8.152,18.173,18.173c0,25.81,20.998,46.808,46.808,46.808s46.808-20.998,46.808-46.808
					c0-10.021,8.152-18.173,18.173-18.173s18.172,8.152,18.172,18.173C431.134,367.961,393.832,405.263,347.981,405.263z
					 M283.001,315.938c-3.403,0-6.173,2.77-6.173,6.173c0,39.233,31.919,71.152,71.153,71.152c39.233,0,71.152-31.919,71.152-71.152
					c0-3.403-2.769-6.173-6.172-6.173s-6.173,2.77-6.173,6.173c0,32.427-26.381,58.808-58.808,58.808s-58.808-26.381-58.808-58.808
					C289.174,318.707,286.404,315.938,283.001,315.938z"/>
			</g>
		</g>
	</g>
</g>
</svg>
