<?xml version="1.0" encoding="utf-8"?>
<!-- Generator: Adobe Illustrator 22.1.0, SVG Export Plug-In . SVG Version: 6.00 Build 0)  -->
<svg version="1.1" id="Icon_Set" xmlns="http://www.w3.org/2000/svg" xmlns:xlink="http://www.w3.org/1999/xlink" x="0px" y="0px"
	 viewBox="0 0 512 512" style="enable-background:new 0 0 512 512;" xml:space="preserve">
<style type="text/css">
	.st0{fill:#F0C48A;}
	.st1{fill:#FD919E;}
	.st2{fill:#4C4372;}
	.st3{fill:#D3E6F8;}
	.st4{fill:#A4CFF2;}
	.st5{fill:#7BABF1;}
	.st6{fill:#FFFFFF;}
	.st7{fill:#E8677D;}
	.st8{fill:none;stroke:#4C4372;stroke-width:12;stroke-linecap:round;stroke-linejoin:round;stroke-miterlimit:10;}
</style>
<g id="Scalpel">
	<g>
		<g>
			<circle class="st0" cx="256" cy="256" r="207"/>
		</g>
	</g>
	<g>
		<g>
			<path class="st6" d="M202.902,319.403l20.233-20.233l-17.593-17.593l-20.233,20.233l-24.862,24.862l-48.576,48.576l0,0
				c19.433,19.433,50.94,19.433,70.372,0l38.252-38.252L202.902,319.403z"/>
		</g>
		<g>
			<path class="st1" d="M392.841,129.465L392.841,129.465c-9.716-9.716-25.47-9.716-35.186,0L205.542,281.577l35.186,35.186
				l152.113-152.113C402.557,154.934,402.557,139.181,392.841,129.465z"/>
		</g>
		<g>
			<g>
				<path class="st3" d="M210.006,326.507l-38.252,38.252c-15.779,15.779-39.519,18.745-58.292,8.898l-1.591,1.591l0,0
					c19.433,19.433,50.94,19.433,70.372,0l38.252-38.252L210.006,326.507z"/>
			</g>
		</g>
		<g>
			<path class="st7" d="M392.841,129.465L392.841,129.465c-2.072-2.072-4.42-3.698-6.924-4.886
				c4.385,9.238,2.758,20.618-4.886,28.262L228.918,304.953l11.81,11.81l152.113-152.113
				C402.558,154.934,402.557,139.181,392.841,129.465z"/>
		</g>
		<g>
			<path class="st2" d="M240.729,322.764c-1.591,0-3.118-0.632-4.243-1.758L201.3,285.819c-2.343-2.343-2.343-6.142,0-8.484
				l152.112-152.112c5.833-5.833,13.587-9.046,21.836-9.046c8.248,0,16.003,3.213,21.835,9.046v-0.001
				c5.833,5.833,9.045,13.587,9.045,21.836s-3.212,16.003-9.045,21.836L244.971,321.006
				C243.846,322.132,242.32,322.764,240.729,322.764z M214.028,281.577l26.701,26.701l147.87-147.87
				c3.566-3.566,5.53-8.308,5.53-13.351s-1.964-9.784-5.53-13.35v-0.001c-3.566-3.565-8.307-5.53-13.35-5.53
				c-5.043,0-9.785,1.965-13.351,5.53L214.028,281.577z"/>
		</g>
		<g>
			<g>
				<path class="st2" d="M265.974,297.518c-1.536,0-3.071-0.586-4.243-1.758l-35.186-35.187c-2.343-2.343-2.343-6.142,0-8.484
					c2.343-2.345,6.142-2.343,8.485,0l35.186,35.187c2.343,2.343,2.343,6.142,0,8.484
					C269.045,296.932,267.509,297.518,265.974,297.518z"/>
			</g>
			<g>
				<path class="st2" d="M284.559,278.934c-1.536,0-3.071-0.586-4.243-1.758l-35.186-35.187c-2.343-2.343-2.343-6.142,0-8.484
					c2.343-2.345,6.142-2.343,8.485,0l35.186,35.187c2.343,2.343,2.343,6.142,0,8.484
					C287.63,278.348,286.094,278.934,284.559,278.934z"/>
			</g>
			<g>
				<path class="st2" d="M303.143,260.349c-1.536,0-3.071-0.586-4.243-1.758l-35.186-35.186c-2.343-2.343-2.343-6.142,0-8.484
					c2.343-2.344,6.142-2.344,8.485,0l35.186,35.186c2.343,2.343,2.343,6.142,0,8.484
					C306.214,259.763,304.679,260.349,303.143,260.349z"/>
			</g>
		</g>
		<g>
			<path class="st2" d="M147.058,395.822c-14.894,0-28.897-5.8-39.429-16.332c-2.343-2.343-2.343-6.142,0-8.484l93.671-93.671
				c1.125-1.126,2.651-1.758,4.243-1.758s3.118,0.632,4.243,1.758l17.593,17.594c2.343,2.343,2.343,6.142,0,8.485l-15.99,15.989
				l13.351,13.35c1.125,1.126,1.757,2.651,1.757,4.243c0,1.591-0.632,3.117-1.757,4.242l-38.252,38.252
				C175.955,390.022,161.952,395.822,147.058,395.822z M120.646,374.958c17.137,12.986,41.731,11.668,57.354-3.952l34.009-34.01
				l-13.351-13.35c-1.125-1.126-1.757-2.651-1.757-4.243s0.632-3.117,1.757-4.243l15.99-15.989l-9.107-9.108L120.646,374.958z"/>
		</g>
	</g>
</g>
</svg>
